<?xml version="1.0" encoding="UTF-8"?>
<svg id="Layer_2" data-name="Layer 2" xmlns="http://www.w3.org/2000/svg" viewBox="0 0 324.8587 79.2854">
  <defs>
    <style>
      .cls-1 {
        fill: #191819;
      }
    </style>
  </defs>
  <g id="Capa_1" data-name="Capa 1">
    <g>
      <path class="cls-1" d="M0,77.9836L29.9347,2.0606h14.8603L15.7277,77.9836H0ZM14.1,61.2799v-13.1224h47.6144v13.1224H14.1ZM59.9796,77.9836L30.9123,2.0606h14.8587l29.9347,75.923h-15.7261Z"/>
      <path class="cls-1" d="M77.5491,35.2508v-11.4979h36.6596v11.4979h-36.6596ZM86.5503,77.9836V18.3298c0-5.7841,1.4824-10.2855,4.4471-13.5026,2.9647-3.2171,7.4837-4.8273,13.5585-4.8273,2.0957,0,4.3193.3626,6.669,1.0846,2.3497.7236,4.5014,1.591,6.4534,2.6037l-5.3144,10.303c-1.1565-.5782-2.206-1.0111-3.1452-1.3019-.9409-.2875-1.8082-.4329-2.6021-.4329-1.9536,0-3.4008.6693-4.3385,2.0063-.9409,1.3386-1.4105,3.4887-1.4105,6.4534v57.2673h-14.3172Z"/>
      <path class="cls-1" d="M118.5456,35.2508v-11.4979h36.6596v11.4979h-36.6596ZM127.5468,77.9836V18.3298c0-5.7841,1.4824-10.2855,4.4471-13.5026,2.9647-3.2171,7.4837-4.8273,13.5585-4.8273,2.0957,0,4.3193.3626,6.669,1.0846,2.3497.7236,4.5014,1.591,6.4534,2.6037l-5.3144,10.303c-1.1565-.5782-2.206-1.0111-3.1452-1.3019-.9409-.2875-1.8082-.4329-2.6021-.4329-1.9536,0-3.4008.6693-4.3385,2.0063-.9409,1.3386-1.4105,3.4887-1.4105,6.4534v57.2673h-14.3172Z"/>
      <path class="cls-1" d="M163.1218,77.9836V23.7529h14.3172v54.2307h-14.3172ZM173.2092,49.4578c0-5.856,1.1389-10.6992,3.4168-14.5329,2.2778-3.8321,5.2058-6.6882,8.7855-8.5683,3.5781-1.8801,7.3207-2.821,11.2247-2.821v13.8843c-3.3257,0-6.4534.3977-9.3814,1.1916-2.928.7971-5.2985,2.0989-7.1035,3.9056-1.8098,1.8082-2.7123,4.1212-2.7123,6.9406h-4.2298Z"/>
      <path class="cls-1" d="M228.09,79.2854c-5.4965,0-10.3957-1.2124-14.6974-3.634-4.3017-2.4216-7.6642-5.7649-10.0858-10.0331-2.4248-4.265-3.634-9.1817-3.634-14.7501s1.1932-10.4835,3.5797-14.7501c2.3849-4.2666,5.7106-7.6099,9.9772-10.0331,4.2666-2.4216,9.1465-3.634,14.6431-3.634,5.5668,0,10.4835,1.2124,14.7501,3.634,4.2666,2.4232,7.5923,5.7665,9.9788,10.0331,2.3865,4.2666,3.5797,9.1833,3.5797,14.7501s-1.1932,10.4851-3.5797,14.7501c-2.3865,4.2682-5.6946,7.6115-9.9245,10.0331-4.2298,2.4216-9.0938,3.634-14.5872,3.634ZM228.09,66.0528c2.674,0,5.0237-.6501,7.0492-1.952,2.0239-1.3019,3.5957-3.0909,4.7186-5.3688,1.1198-2.2778,1.6804-4.8975,1.6804-7.8639,0-2.9631-.5798-5.586-1.7347-7.8639-1.1581-2.2778-2.7666-4.0669-4.8273-5.3688-2.0606-1.3003-4.4295-1.952-7.1035-1.952-2.6037,0-4.9359.6517-6.9965,1.952-2.0606,1.3019-3.6708,3.0909-4.8257,5.3688-1.1581,2.2778-1.7363,4.9007-1.7363,7.8639,0,2.9663.5782,5.586,1.7363,7.8639,1.1549,2.2778,2.7826,4.0669,4.88,5.3688,2.0973,1.3019,4.4822,1.952,7.1594,1.952Z"/>
      <path class="cls-1" d="M263.9893,77.9836V23.7529h14.3172v54.2307h-14.3172ZM299.8902,50.2181c0-3.6883-.4169-6.5444-1.2475-8.5683-.8322-2.0239-2.0063-3.4887-3.5254-4.3928-1.5175-.9041-3.2906-1.3562-5.3144-1.3562-3.6867-.0719-6.5253,1.0495-8.514,3.3625-1.9887,2.3146-2.9823,5.7489-2.9823,10.303h-4.7729c0-5.7841.8498-10.6832,2.5494-14.6958,1.698-4.0126,4.0845-7.0859,7.1578-9.22,3.0733-2.1309,6.6706-3.1995,10.7918-3.1995,4.2666,0,7.9182.869,10.9548,2.6037,3.0382,1.7347,5.3512,4.4295,6.9422,8.0811,1.5894,3.6516,2.3481,8.3686,2.2778,14.1527v2.9296h-14.3172ZM299.8902,77.9836v-27.7655h14.3172v27.7655h-14.3172Z"/>
      <path class="cls-1" d="M319.8445,22.7402c-.6853,0-1.3338-.131-1.9456-.393s-1.1437-.6198-1.599-1.075c-.4568-.4553-.8147-.9888-1.0766-1.6006-.262-.6102-.393-1.2587-.393-1.9456,0-.6981.131-1.3498.393-1.9552.262-.6038.6198-1.1341,1.0766-1.5894.4553-.4553.9872-.8147,1.599-1.0766s1.2603-.393,1.9456-.393c.6981,0,1.3498.131,1.9552.393.6054.262,1.1357.6214,1.591,1.0766.4553.4553.8131.9856,1.075,1.5894.262.6054.393,1.2571.393,1.9552,0,.6869-.131,1.3354-.393,1.9456-.262.6118-.6198,1.1453-1.075,1.6006s-.9856.8131-1.591,1.075c-.6054.262-1.2571.393-1.9552.393ZM319.8445,21.7674c.7859,0,1.4792-.1709,2.0766-.5144.599-.3418,1.0702-.8195,1.4137-1.4312.3418-.6102.5144-1.3098.5144-2.0957,0-.7971-.1725-1.4999-.5144-2.1037-.3434-.6054-.8147-1.0798-1.4137-1.4233-.5974-.3418-1.2907-.5144-2.0766-.5144s-1.4776.1725-2.0766.5144c-.599.3434-1.0702.8179-1.4121,1.4233-.3434.6038-.5144,1.3066-.5144,2.1037,0,.7859.1709,1.4856.5144,2.0957.3418.6118.8131,1.0894,1.4121,1.4312.599.3434,1.2907.5144,2.0766.5144ZM317.974,20.4016v-5.463h1.9089c.5479,0,1,.1597,1.3562.4776.3546.3179.5335.7332.5335,1.2444,0,.3482-.1006.6613-.3003.9345-.1997.2747-.4616.4808-.7859.6182l1.3098,2.1884h-.992l-1.1597-2.0207h-.992v2.0207h-.8786ZM318.8526,17.5583h1.0862c.262,0,.4824-.0847.6645-.2524.1805-.1693.27-.3834.27-.6453,0-.2747-.0926-.4968-.2795-.6645-.1869-.1693-.4377-.2524-.7492-.2524h-.992v1.8146Z"/>
    </g>
  </g>
</svg>