<?xml version="1.0" encoding="UTF-8"?>
<svg id="Layer_2" data-name="Layer 2" xmlns="http://www.w3.org/2000/svg" viewBox="0 0 413.2979 111.9802">
  <defs>
    <style>
      .cls-1 {
        fill-rule: evenodd;
      }

      .cls-1, .cls-2 {
        fill: #191819;
      }
    </style>
  </defs>
  <g id="Layer_1-2" data-name="Layer 1">
    <g>
      <g>
        <path class="cls-2" d="M297.6074,8.9815c-3.6534,0-6.6239,2.9692-6.6239,6.6183,0,3.6521,2.9705,6.6226,6.6239,6.6226,3.6507,0,6.6213-2.9705,6.6213-6.6226,0-3.6491-2.9706-6.6183-6.6213-6.6183Z"/>
        <path class="cls-2" d="M261.8694,14.3692c-1.898,0-3.44,1.5437-3.44,3.4415s1.5421,3.4415,3.44,3.4415c1.9007,0,3.4457-1.5435,3.4457-3.4415s-1.545-3.4415-3.4457-3.4415Z"/>
        <path class="cls-2" d="M333.2572,9.6986c-1.8949,0-3.4371,1.5435-3.4371,3.4415,0,1.8964,1.5422,3.44,3.4371,3.44,1.9007,0,3.4459-1.5437,3.4459-3.44,0-1.898-1.5451-3.4415-3.4459-3.4415Z"/>
        <path class="cls-2" d="M278.1706,8.2517c-2.6889,0-4.8769,2.1867-4.8769,4.8742s2.188,4.8756,4.8769,4.8756c2.6861,0,4.8741-2.1882,4.8741-4.8756s-2.188-4.8742-4.8741-4.8742Z"/>
        <path class="cls-2" d="M316.9788,13.0163c-2.686,0-4.8741,2.1882-4.8741,4.8771s2.1882,4.8769,4.8741,4.8769c2.6889,0,4.8771-2.188,4.8771-4.8769s-2.1882-4.8771-4.8771-4.8771Z"/>
      </g>
      <g>
        <g>
          <path class="cls-2" d="M71.9762,65.3558c-6.3993,9.1237-16.6754,14.1487-28.9347,14.1487-20.4448,0-35.8625-15.6738-35.8625-36.4594S22.5967,6.5715,43.0415,6.5715c12.11,0,21.7828,4.6437,27.9743,13.4288l.6245.8849,5.4234-4.0305-.5762-.8394C69.3855,5.6879,57.5073,0,43.0415,0,18.5036,0,0,18.505,0,43.045s18.5036,43.0307,43.0415,43.0307c14.4687,0,27.0112-6.1446,34.4106-16.8588l.5918-.8579-5.4575-3.8726-.6103.8693Z"/>
          <path class="cls-2" d="M111.1358,32.5925c-14.7534,0-26.7552,11.9478-26.7552,26.6329,0,14.7518,12.0019,26.7522,26.7552,26.7522,14.8685,0,26.516-11.75,26.516-26.7522,0-14.934-11.6476-26.6329-26.516-26.6329ZM111.1358,79.6453c-11.4869,0-19.8252-8.5888-19.8252-20.4199,0-11.7615,8.3384-20.299,19.8252-20.299,11.5237,0,19.5733,8.3469,19.5733,20.299,0,11.8311-8.2317,20.4199-19.5733,20.4199Z"/>
          <path class="cls-2" d="M170.9644,77.7801l-12.8057-1.2093c-5.5086-.4553-6.146-2.9919-6.146-4.8599,0-2.5082,1.6531-4.2468,4.5497-4.8102,2.8184,1.5123,6.0792,2.2479,9.956,2.2479,11.3104,0,19.518-7.6997,19.518-18.3101,0-4.2055-1.3302-7.9657-3.874-11.0087h9.6629v-6.0921h-18.3699c-2.0486-.7013-4.5028-1.0855-6.937-1.0855-11.5153,0-19.8736,7.6484-19.8736,18.1863,0,4.7717,1.7229,9.0768,4.8884,12.3034-3.5625,1.7258-5.8559,5.1858-5.8559,9.0556,0,3.8114,1.9093,6.92,5.2356,8.7211-7.1591,2.7785-10.7826,7.4221-10.7826,13.8343,0,10.626,9.8337,17.2274,25.6654,17.2274,16.2515,0,26.7509-7.1391,26.7509-18.1863,0-9.6858-6.6567-14.6253-21.5822-16.0138ZM165.7957,105.763c-8.5461,0-18.7341-1.9321-18.7341-11.1254,0-7.1433,6.974-10.0584,12.8854-11.245l10.2347.7171c13.0747.9803,15.5544,4.16,15.5544,9.6843,0,8.8249-10.3003,11.9691-19.9405,11.9691ZM166.5184,38.7443c7.9087,0,12.8213,4.6351,12.8213,12.0942,0,7.5346-4.9126,12.2167-12.8213,12.2167-8.0524,0-13.0546-4.6821-13.0546-12.2167,0-7.4592,5.0022-12.0942,13.0546-12.0942Z"/>
          <path class="cls-2" d="M226.6221,32.5157c-7.4242,0-13.7909,3.285-17.716,8.9686l.0868-7.8789h-6.8318v51.3322h6.819v-28.562c0-10.5692,6.688-17.3996,17.0374-17.3996,10.8979,0,13.1856,8.1463,13.1856,14.9809v30.9807h6.8146v-31.8214c0-12.5154-7.6142-20.6006-19.3956-20.6006Z"/>
          <rect class="cls-2" x="258.5261" y="33.6097" width="6.8174" height="51.3322"/>
          <polygon class="cls-2" points="278.6117 39.8212 307.2305 39.8212 275.2341 82.3285 275.2341 84.9419 317.6502 84.9419 317.6502 78.7247 285.654 78.7247 317.437 36.6259 317.6502 36.3442 317.6502 33.6097 278.6117 33.6097 278.6117 39.8212"/>
          <rect class="cls-2" x="329.7915" y="33.6097" width="6.8176" height="51.3322"/>
          <path class="cls-2" d="M376.5953,32.5157c-7.4236,0-13.7945,3.2863-17.7239,8.97l.0911-7.8803h-6.8289v51.3322h6.8146v-28.562c0-10.5692,6.6895-17.3996,17.0438-17.3996,10.8979,0,13.1885,8.1463,13.1885,14.9809v30.9807h6.809v-31.8214c0-12.5154-7.6114-20.6006-19.3941-20.6006Z"/>
        </g>
        <path class="cls-1" d="M405.419,44.4876h-1.1181v-6.9015h2.3901c.8479,0,1.4455.0669,1.7926.2035.3499.1308.6259.3514.8393.6615.2107.3144.3188.6445.3188.9959,0,.5264-.185.9717-.5549,1.3374-.367.3642-.8422.5676-1.4198.6145.2561.1068.5009.2832.7313.5335.2332.2447.5264.6489.8735,1.2122l.8336,1.3429h-1.3601l-.6031-1.0811c-.4382-.7782-.7854-1.2776-1.0386-1.5081-.2561-.2334-.5976-.3472-1.0243-.3472h-.6602v2.9364ZM405.419,38.5237v2.0757h1.363c.5747,0,1.0043-.0854,1.2661-.2519.2647-.1678.3984-.4368.3984-.7981,0-.3827-.128-.6473-.3928-.7995-.2532-.1552-.7055-.2262-1.3629-.2262h-1.272ZM406.8731,34.6228c1.1467,0,2.2137.2902,3.2096.8691.9873.572,1.7727,1.3544,2.3503,2.3489.5776.9874.8649,2.0544.8649,3.1983,0,1.1566-.2873,2.2236-.8535,3.2095-.5804.9845-1.3572,1.7698-2.3531,2.3403-.9902.5719-2.0687.8622-3.2182.8622-1.1553,0-2.2336-.2845-3.2238-.8521-.993-.572-1.7784-1.353-2.3503-2.3404-.5747-.9959-.8622-2.0629-.8622-3.2195,0-1.151.2874-2.218.8622-3.2068.5776-.9931,1.3601-1.7784,2.356-2.3518.9959-.5718,2.0686-.8578,3.2182-.8578ZM406.8731,35.6868c-1.4768,0-2.7373.5265-3.7901,1.5721-1.0413,1.0457-1.562,2.3091-1.562,3.7802,0,1.481.5207,2.7457,1.562,3.7885,1.0472,1.0373,2.3105,1.5579,3.7901,1.5579,1.4739,0,2.7343-.5207,3.7815-1.5678,1.0386-1.0428,1.5649-2.3033,1.5649-3.7786,0-1.4711-.5293-2.7345-1.5763-3.7802-1.0415-1.0456-2.3019-1.5721-3.7701-1.5721Z"/>
      </g>
    </g>
  </g>
</svg>