<?xml version="1.0" encoding="UTF-8"?>
<svg id="Layer_2" data-name="Layer 2" xmlns="http://www.w3.org/2000/svg" xmlns:xlink="http://www.w3.org/1999/xlink" viewBox="0 0 888.9952 98.3245">
  <defs>
    <style>
      .cls-1 {
        fill: #fff;
      }

      .cls-2 {
        fill: url(#linear-gradient);
        stroke: #89e0d1;
        stroke-miterlimit: 10;
        stroke-width: 2px;
      }
    </style>
    <linearGradient id="linear-gradient" x1="114.1222" y1="27.101" x2="59.9208" y2="77.2712" gradientUnits="userSpaceOnUse">
      <stop offset="0" stop-color="#00ae94"/>
      <stop offset=".8862" stop-color="#042b23"/>
    </linearGradient>
  </defs>
  <g id="Layer_1-2" data-name="Layer 1">
    <g>
      <g>
        <path class="cls-1" d="M258.5992,61.6062c-1.1806-2.8571-2.9516-5.4781-5.2893-7.8159-2.4793-2.4557-5.2422-4.2974-8.1938-5.4781,1.9128-1.0626,3.7309-2.4558,5.4311-4.1559,4.699-4.699,7.0839-10.4842,7.0839-17.214,0-6.6824-2.3849-12.4439-7.0839-17.1194-4.6755-4.699-10.437-7.0839-17.0958-7.0839h-39.3866v92.4685h42.1256c6.6589,0,12.4205-2.3849,17.1194-7.0839,4.6753-4.6755,7.0603-10.4842,7.0603-17.214,0-3.353-.5903-6.4463-1.771-9.3035ZM236.1905,90.6738h-37.5918v-39.4572h37.5918c5.3602,0,10.0355,1.9599,13.8844,5.8087,3.8489,3.8254,5.7852,8.4771,5.7852,13.8844,0,5.4546-1.9363,10.1772-5.7852,13.979-3.8253,3.8489-8.5243,5.7851-13.8844,5.7851ZM233.4514,7.2492c5.3364,0,10.0355,1.9598,13.8843,5.7852,3.8489,3.8724,5.7852,8.5479,5.7852,13.9079,0,5.4075-1.9363,10.1301-5.7852,13.979-3.8253,3.8489-8.5243,5.7851-13.8843,5.7851h-34.8528V7.2492h34.8528Z"/>
        <path class="cls-1" d="M306.2502,22.4796l-.2361-.4959h-4.6518l-34.1443,73.2239h5.0531l6.3755-13.7428h50.2012l6.3755,13.7428h5.0296l-34.0028-72.728ZM280.7718,76.9546l22.9283-49.1386,22.999,49.1386h-45.9273Z"/>
        <g>
          <path class="cls-1" d="M427.3848,22.4796l-.2361-.4959h-4.6517l-32.0192,68.6901h-35.2307V21.9837h-4.51v73.2239h42.6687l.307-.6612,6.0684-13.0815h50.2012l6.3755,13.7428h5.0296l-34.0028-72.728ZM401.93,76.9546l22.9046-49.1386,22.999,49.1386h-45.9037Z"/>
          <path class="cls-1" d="M393.4058,95.2076h.307v-.6612l-.307.6612Z"/>
        </g>
        <polygon class="cls-1" points="528.7082 21.9837 528.7082 95.2076 523.8675 95.2076 476.3817 29.8703 476.3817 95.2076 471.8717 95.2076 471.8717 21.9837 476.4053 21.9837 524.198 87.864 524.198 21.9837 528.7082 21.9837"/>
        <path class="cls-1" d="M607.4574,83.1649l3.0697,3.2586-.6138.614c-7.5562,7.2492-16.718,10.9092-27.2258,10.9092-10.8148,0-20.1891-3.8726-27.8397-11.5231-7.6506-7.6506-11.5231-17.0014-11.5231-27.8397,0-10.8148,3.8726-20.1654,11.5231-27.8162,7.6506-7.6506,17.0249-11.5466,27.8397-11.5466s20.1891,3.8724,27.8869,11.4759l.1653.2361c.0236.0709.0944.1417.1653.2126l.6376.6376-3.2586,3.0933-.8029-.8029c-6.895-6.895-15.1831-10.3189-24.7936-10.3189s-17.8987,3.4239-24.652,10.1772c-6.7769,6.7533-10.2008,15.0651-10.2008,24.652,0,9.6105,3.4239,17.9222,10.2008,24.6756,6.7533,6.7533,15.0415,10.1772,24.652,10.1772,9.3979,0,17.4973-3.2586,24.1089-9.6578l.6611-.614Z"/>
        <polygon class="cls-1" points="630.2913 26.4937 630.2913 56.2698 663.2786 56.2698 663.2786 60.8034 630.2913 60.8034 630.2913 90.6738 674.2587 90.6738 674.2587 95.2076 625.7811 95.2076 625.7811 21.9837 674.2587 21.9837 674.2587 26.4937 630.2913 26.4937"/>
        <polygon class="cls-1" points="737.4705 7.2492 737.4705 46.7064 775.9598 46.7064 775.9598 51.2402 737.4705 51.2402 737.4705 90.6738 786.9396 90.6738 786.9396 95.2076 732.9606 95.2076 732.9606 2.739 786.9396 2.739 786.9396 7.2492 737.4705 7.2492"/>
        <path class="cls-1" d="M875.8898,81.9842c8.4533-9.209,12.7511-20.3307,12.7511-33.0582,0-6.7296-1.2043-13.0106-3.6129-18.7722-2.3849-5.7852-5.9742-11.0745-10.7204-15.8207-9.5158-9.5161-21.1571-14.3331-34.5928-14.3331-13.5302,0-25.2188,4.817-34.711,14.3331-9.5161,9.4923-14.3332,21.1337-14.3332,34.5929,0,13.5067,4.8171,25.1952,14.3332,34.6875,9.4922,9.5161,21.1808,14.3331,34.711,14.3331,12.6565,0,23.7312-4.2739,32.94-12.7509l13.1053,13.1288,3.235-3.235-13.1053-13.1053ZM839.7149,93.4366c-12.2317,0-22.8339-4.392-31.4763-13.0344-8.6658-8.6659-13.0581-19.2446-13.0581-31.4762,0-12.1606,4.3923-22.7157,13.0581-31.3816,8.6424-8.6423,19.2446-13.0344,31.4763-13.0344,12.1368,0,22.692,4.3921,31.3581,13.0344,8.6421,8.6659,13.0344,19.221,13.0344,31.3816,0,11.4524-3.8492,21.4879-11.4525,29.8232l-32.8455-32.8456-3.2353,3.235,32.8457,32.8221c-8.3352,7.6269-18.3237,11.4759-29.705,11.4759Z"/>
      </g>
      <path class="cls-2" d="M124.9329,83.4934h-3.2953c-5.4614,0-9.8887-4.4273-9.8887-9.8887V24.164c0-5.4614,4.4273-9.8887,9.8887-9.8887h3.2953c5.4614,0,9.8887,4.4273,9.8887,9.8887v49.4407c0,5.4614-4.4273,9.8887-9.8887,9.8887ZM97.7845,85.73l.1207-50.6185c0-5.1361-4.4982-9.2998-10.0471-9.2998h-2.8577c-5.5489,0-10.0471,4.1636-10.0471,9.2998l-.1207,50.6185c0,5.1361,4.4982,9.2998,10.0471,9.2998h2.8577c5.5489,0,10.0471-4.1636,10.0471-9.2998ZM60.9889,62.1083V12.5878c0-5.4393-4.4094-9.8488-9.8488-9.8488h-3.3751c-5.4393,0-9.8488,4.4094-9.8488,9.8488v49.5205c0,5.4393,4.4094,9.8488,9.8488,9.8488h3.3751c5.4393,0,9.8488-4.4094,9.8488-9.8488ZM24.0727,54.325v-10.8812c0-5.4975-4.4566-9.9541-9.9541-9.9541h-3.1644c-5.4975,0-9.9541,4.4566-9.9541,9.9541v10.8812c0,5.4975,4.4566,9.9541,9.9541,9.9541h3.1644c5.4975,0,9.9541-4.4566,9.9541-9.9541ZM171.7378,62.2403v-3.6391c0-5.3664-4.3504-9.7168-9.7168-9.7168h-3.6391c-5.3664,0-9.7168,4.3504-9.7168,9.7168v3.6391c0,5.3664,4.3504,9.7168,9.7168,9.7168h3.6391c5.3664,0,9.7168-4.3504,9.7168-9.7168Z"/>
    </g>
  </g>
</svg>