<?xml version="1.0" encoding="UTF-8"?>
<svg id="Layer_2" data-name="Layer 2" xmlns="http://www.w3.org/2000/svg" xmlns:xlink="http://www.w3.org/1999/xlink" viewBox="0 0 336.0216 324.1921">
  <defs>
    <style>
      .cls-1 {
        fill: #fff;
      }

      .cls-2 {
        fill: url(#linear-gradient);
        stroke: #89e0d1;
        stroke-miterlimit: 10;
        stroke-width: 2px;
      }
    </style>
    <linearGradient id="linear-gradient" x1="168.0108" y1="180.644" x2="168.0108" y2="35.412" gradientUnits="userSpaceOnUse">
      <stop offset="0" stop-color="#00ae94"/>
      <stop offset=".8602" stop-color="#042b23"/>
    </linearGradient>
  </defs>
  <g id="Layer_1-2" data-name="Layer 1">
    <g>
      <path class="cls-2" d="M243.455,158.9831h-6.4467c-10.6843,0-19.3457-8.6613-19.3457-19.3457V42.9146c0-10.6843,8.6613-19.3457,19.3457-19.3457h6.4467c10.6843,0,19.3457,8.6613,19.3457,19.3457v96.7228c0,10.6843-8.6613,19.3457-19.3457,19.3457ZM190.3436,163.3587l.2362-99.0271c0-10.048-8.8001-18.1935-19.6556-18.1935h-5.5906c-10.8555,0-19.6556,8.1455-19.6556,18.1935l-.2362,99.0271c0,10.048,8.8001,18.1935,19.6556,18.1935h5.5906c10.8555,0,19.6556-8.1455,19.6556-18.1935ZM118.3589,117.1466V20.2675c0-10.6412-8.6264-19.2675-19.2675-19.2675h-6.6029c-10.6412,0-19.2675,8.6264-19.2675,19.2675v96.8791c0,10.6412,8.6264,19.2675,19.2675,19.2675h6.6029c10.6412,0,19.2675-8.6264,19.2675-19.2675ZM46.1381,101.9198v-21.2874c0-10.755-8.7187-19.4737-19.4737-19.4737h-6.1907c-10.755,0-19.4737,8.7187-19.4737,19.4737v21.2874c0,10.755,8.7187,19.4737,19.4737,19.4737h6.1907c10.755,0,19.4737-8.7187,19.4737-19.4737ZM335.0216,117.4048v-7.1193c0-10.4986-8.5108-19.0094-19.0094-19.0094h-7.1193c-10.4986,0-19.0094,8.5108-19.0094,19.0094v7.1193c0,10.4986,8.5108,19.0094,19.0094,19.0094h7.1193c10.4986,0,19.0094-8.5108,19.0094-19.0094Z"/>
      <g>
        <path class="cls-1" d="M32.0247,241.9717c-.5676-1.3735-1.419-2.6336-2.5428-3.7575-1.1919-1.1806-2.5201-2.066-3.9391-2.6336.9196-.5108,1.7936-1.1806,2.611-1.9979,2.259-2.259,3.4056-5.0402,3.4056-8.2756,0-3.2125-1.1465-5.9824-3.4056-8.2301-2.2477-2.259-5.0176-3.4056-8.2187-3.4056H1v44.4539h20.2518c3.2012,0,5.9711-1.1465,8.2301-3.4056,2.2476-2.2477,3.3942-5.0402,3.3942-8.2756,0-1.6119-.2838-3.099-.8514-4.4726ZM21.2518,255.9459H3.1796v-18.9689h18.0721c2.5769,0,4.8245.9422,6.6749,2.7925,1.8504,1.8391,2.7812,4.0753,2.7812,6.6749,0,2.6223-.9309,4.8927-2.7812,6.7204-1.839,1.8504-4.098,2.7812-6.6749,2.7812ZM19.935,215.8398c2.5655,0,4.8245.9422,6.6748,2.7812,1.8504,1.8617,2.7812,4.1094,2.7812,6.6862,0,2.5996-.9309,4.87-2.7812,6.7204-1.839,1.8504-4.098,2.7812-6.6748,2.7812H3.1796v-18.9689h16.7554Z"/>
        <path class="cls-1" d="M54.9327,223.1618l-.1135-.2384h-2.2364l-16.4148,35.2021h2.4292l3.065-6.6068h24.1341l3.065,6.6068h2.418l-16.3467-34.9637ZM42.6841,249.3504l11.0227-23.6232,11.0567,23.6232h-22.0794Z"/>
        <g>
          <path class="cls-1" d="M113.1678,223.1618l-.1135-.2384h-2.2363l-15.3931,33.0225h-16.937v-33.0225h-2.1682v35.2021h20.5128l.1476-.3179,2.9174-6.2889h24.1341l3.065,6.6068h2.418l-16.3467-34.9637ZM100.9305,249.3504l11.0113-23.6232,11.0567,23.6232h-22.068Z"/>
          <path class="cls-1" d="M96.8325,258.1255h.1476v-.3179l-.1476.3179Z"/>
        </g>
        <polygon class="cls-1" points="161.8786 222.9233 161.8786 258.1255 159.5515 258.1255 136.7229 226.7148 136.7229 258.1255 134.5547 258.1255 134.5547 222.9233 136.7342 222.9233 159.7104 254.5951 159.7104 222.9233 161.8786 222.9233"/>
        <path class="cls-1" d="M199.7371,252.336l1.4757,1.5666-.2951.2952c-3.6326,3.485-8.0371,5.2446-13.0887,5.2446-5.1992,0-9.7058-1.8617-13.3838-5.5397-3.678-3.678-5.5397-8.1734-5.5397-13.3838,0-5.1992,1.8617-9.6945,5.5397-13.3725,3.678-3.678,8.1846-5.551,13.3838-5.551s9.7058,1.8617,13.4065,5.517l.0795.1135c.0114.0341.0454.0681.0795.1022l.3065.3065-1.5666,1.4871-.386-.386c-3.3147-3.3147-7.2992-4.9608-11.9195-4.9608s-8.6047,1.646-11.8513,4.8927c-3.258,3.2466-4.904,7.2425-4.904,11.8513,0,4.6202,1.646,8.616,4.904,11.8627,3.2466,3.2466,7.2311,4.8927,11.8513,4.8927,4.518,0,8.4118-1.5666,11.5903-4.6429l.3178-.2952Z"/>
        <polygon class="cls-1" points="210.7144 225.0915 210.7144 239.4063 226.5729 239.4063 226.5729 241.5858 210.7144 241.5858 210.7144 255.9459 231.8515 255.9459 231.8515 258.1255 208.5461 258.1255 208.5461 222.9233 231.8515 222.9233 231.8515 225.0915 210.7144 225.0915"/>
        <polygon class="cls-1" points="262.2404 215.8398 262.2404 234.8087 280.744 234.8087 280.744 236.9883 262.2404 236.9883 262.2404 255.9459 286.0225 255.9459 286.0225 258.1255 260.0723 258.1255 260.0723 213.6715 286.0225 213.6715 286.0225 215.8398 262.2404 215.8398"/>
        <path class="cls-1" d="M328.7851,251.7684c4.0639-4.4272,6.13-9.7739,6.13-15.8926,0-3.2353-.579-6.2548-1.7369-9.0247-1.1465-2.7812-2.8721-5.324-5.1538-7.6058-4.5747-4.5748-10.1712-6.8906-16.6304-6.8906-6.5046,0-12.1239,2.3158-16.6872,6.8906-4.5748,4.5634-6.8907,10.1599-6.8907,16.6304,0,6.4933,2.3158,12.1125,6.8907,16.6759,4.5633,4.5748,10.1826,6.8906,16.6872,6.8906,6.0846,0,11.4087-2.0547,15.8358-6.13l6.3003,6.3116,1.5552-1.5552-6.3003-6.3003ZM311.3941,257.2741c-5.8803,0-10.9773-2.1114-15.1321-6.2663-4.166-4.1661-6.2776-9.2518-6.2776-15.1321,0-5.8462,2.1116-10.9205,6.2776-15.0866,4.1548-4.1548,9.2518-6.2663,15.1321-6.2663,5.8347,0,10.9091,2.1115,15.0753,6.2663,4.1547,4.1661,6.2663,9.2404,6.2663,15.0866,0,5.5057-1.8505,10.3302-5.5058,14.3374l-15.7903-15.7904-1.5553,1.5552,15.7905,15.7791c-4.0071,3.6666-8.8091,5.517-14.2806,5.517Z"/>
      </g>
      <g>
        <polygon class="cls-1" points="175.3921 283.439 175.3921 300.8867 192.4764 300.8867 192.4764 302.9642 175.3921 302.9642 175.3921 322.4893 173.3257 322.4893 173.3257 281.3616 197.3575 281.3616 197.3575 283.439 175.3921 283.439"/>
        <path class="cls-1" d="M233.6497,299.4791c-.863-2.0658-2.1457-3.9618-3.8374-5.6646-3.4056-3.4056-7.5716-5.1311-12.3845-5.1311s-8.9795,1.7255-12.3851,5.1311-5.1311,7.5719-5.1311,12.3848,1.7255,8.9795,5.1311,12.3737c3.4056,3.4056,7.5716,5.1311,12.3851,5.1311s8.9789-1.7255,12.3845-5.1311c3.3945-3.3942,5.12-7.5602,5.12-12.3737,0-2.4065-.4312-4.6541-1.2826-6.7202ZM217.4278,321.638c-4.2569,0-7.9352-1.521-10.9317-4.518-2.986-2.997-4.5069-6.6637-4.5069-10.9206s1.521-7.9347,4.5069-10.9317c2.9965-2.997,6.6748-4.5067,10.9317-4.5067s7.9236,1.5096,10.9206,4.5067c2.9965,2.997,4.518,6.6748,4.518,10.9317s-1.5215,7.9236-4.518,10.9206c-2.997,2.997-6.6637,4.518-10.9206,4.518Z"/>
        <path class="cls-1" d="M247.8168,295.2676c-2.9854,2.997-4.5069,6.6748-4.5069,10.9317s1.5215,7.9236,4.5069,10.9206c2.9965,2.997,6.6748,4.518,10.9317,4.518,4.155,0,7.7534-1.4417,10.6823-4.2797l.3065-.2952,1.419,1.4985-.3065.2952c-3.349,3.2124-7.4242,4.8473-12.1013,4.8473-4.8135,0-8.9795-1.7255-12.3851-5.1311-3.4056-3.3942-5.1305-7.5602-5.1305-12.3737s1.725-8.9792,5.1305-12.3848c3.4056-3.4056,7.5716-5.1311,12.3851-5.1311s8.9795,1.7141,12.4078,5.1083l.3858.4202-.25.3861-1.1806,1.1125-.4423-.4429c-2.997-2.997-6.6637-4.5067-10.9206-4.5067s-7.9352,1.5096-10.9317,4.5067Z"/>
        <path class="cls-1" d="M304.1559,289.9096v21.1711c0,3.4851-1.2488,6.4932-3.6894,8.934-2.4522,2.4519-5.4603,3.6894-8.9451,3.6894s-6.4935-1.2375-8.934-3.6894c-2.4522-2.4408-3.6894-5.4489-3.6894-8.934v-21.1711h2.0664v21.1711c0,2.8948,1.0443,5.4035,3.0985,7.4583,2.0548,2.0548,4.564,3.099,7.4585,3.099s5.4032-1.0443,7.458-3.099c2.0548-2.0548,3.099-4.5635,3.099-7.4583v-21.1711h2.0775Z"/>
        <path class="cls-1" d="M335.0216,314.3956c0,.715-.0793,1.4528-.2494,2.1908-.5792,2.486-1.9417,4.393-4.053,5.6873-1.5781.8741-3.2692,1.4531-5.0402,1.7255-.965.1247-1.9184.1929-2.838.1929-3.7348,0-7.3443-.9877-10.7161-2.94-.102-.0682-.1702-.1023-.2156-.1364l-.4429-.227,1.317-1.8278.4994.5111c3.0309,1.6573,6.2779,2.4971,9.6491,2.4971.7949,0,1.6346-.0452,2.4976-.1361,1.3963-.1588,2.838-.6358,4.2791-1.419,1.567-.9875,2.5885-2.4746,3.0087-4.4047.1585-.6241.2383-1.2144.2383-1.7593,0-1.192-.3065-2.3158-.9196-3.349-.9085-1.4869-2.4178-2.5653-4.4842-3.1783l-7.7074-1.8278v.0341l-.5454-.102c-2.7471-.7835-4.7902-2.1343-6.039-4.0413-.9196-1.3281-1.3963-2.8493-1.3963-4.5294,0-.6471.0682-1.3284.2045-2.032.5903-2.2363,1.782-3.9732,3.5757-5.1992,1.771-1.2147,4.0868-1.8616,6.8904-1.9298h.352c4.3251,0,8.1846,1.1465,11.4655,3.3942l.0909.0682.0565.0906.4429.2954-.3403.3971-1.6462,1.5667v-.9423c-2.8945-1.8505-6.2552-2.7925-10.0238-2.7925h-.3858c-2.4067.0565-4.3368.5787-5.733,1.5551-1.3963.965-2.3158,2.2817-2.7354,3.9277-.1253.5676-.1818,1.1352-.1818,1.6576,0,1.2372.3631,2.361,1.0897,3.3601.965,1.3735,2.4749,2.4065,4.4953,3.0649l.2838.0341,8.3437,1.9525c2.588.715,4.4953,2.0999,5.687,4.1092.8176,1.3624,1.2261,2.8607,1.2261,4.4615Z"/>
      </g>
    </g>
  </g>
</svg>