<?xml version="1.0" encoding="UTF-8"?>
<svg id="Layer_2" data-name="Layer 2" xmlns="http://www.w3.org/2000/svg" xmlns:xlink="http://www.w3.org/1999/xlink" viewBox="0 0 398.3088 215.3021">
  <defs>
    <style>
      .cls-1 {
        fill: url(#linear-gradient);
      }
    </style>
    <linearGradient id="linear-gradient" x1="199.1544" y1="214.2191" x2="199.1544" y2="41.035" gradientUnits="userSpaceOnUse">
      <stop offset="0" stop-color="#00ae94"/>
      <stop offset=".8602" stop-color="#042b23"/>
    </linearGradient>
  </defs>
  <g id="Layer_1-2" data-name="Layer 1">
    <path class="cls-1" d="M289.119,188.3892h-7.6875c-12.7407,0-23.069-10.3283-23.069-23.069V49.9817c0-12.7407,10.3283-23.069,23.069-23.069h7.6875c12.7407,0,23.069,10.3283,23.069,23.069v115.3385c0,12.7407-10.3283,23.069-23.069,23.069ZM225.7855,193.607l.2816-118.0863c0-11.9819-10.4938-21.6951-23.4386-21.6951h-6.6666c-12.9448,0-23.4386,9.7132-23.4386,21.6951l-.2816,118.0863c0,11.9819,10.4938,21.6951,23.4386,21.6951h6.6666c12.9448,0,23.4386-9.7132,23.4386-21.6951ZM139.9463,138.5007V22.9759C139.9463,10.2866,129.6597,0,116.9704,0h-7.8737c-12.6892,0-22.9759,10.2866-22.9759,22.9759v115.5248c0,12.6892,10.2866,22.9759,22.9759,22.9759h7.8737c12.6892,0,22.9759-10.2866,22.9759-22.9759ZM53.8255,120.3433v-25.3845c0-12.825-10.3967-23.2217-23.2217-23.2217h-7.3822c-12.825,0-23.2217,10.3967-23.2217,23.2217v25.3845c0,12.825,10.3967,23.2217,23.2217,23.2217h7.3822c12.825,0,23.2217-10.3967,23.2217-23.2217ZM398.3088,138.8085v-8.4895c0-12.5192-10.1488-22.668-22.668-22.668h-8.4895c-12.5192,0-22.668,10.1488-22.668,22.668v8.4895c0,12.5192,10.1488,22.668,22.668,22.668h8.4895c12.5192,0,22.668-10.1488,22.668-22.668Z"/>
  </g>
</svg>