<?xml version="1.0" encoding="UTF-8"?>
<svg id="Layer_2" data-name="Layer 2" xmlns="http://www.w3.org/2000/svg" xmlns:xlink="http://www.w3.org/1999/xlink" viewBox="0 0 336.0216 324.0377">
  <defs>
    <style>
      .cls-1 {
        fill: url(#linear-gradient);
        stroke: #7fcae5;
        stroke-miterlimit: 10;
        stroke-width: 2px;
      }

      .cls-2 {
        fill: #fff;
      }
    </style>
    <linearGradient id="linear-gradient" x1="168.0108" y1="180.644" x2="168.0108" y2="35.412" gradientUnits="userSpaceOnUse">
      <stop offset="0" stop-color="#008bd8"/>
      <stop offset=".8862" stop-color="#001721"/>
    </linearGradient>
  </defs>
  <g id="Layer_1-2" data-name="Layer 1">
    <g>
      <path class="cls-1" d="M243.455,158.9831h-6.4467c-10.6843,0-19.3457-8.6613-19.3457-19.3457V42.9146c0-10.6843,8.6613-19.3457,19.3457-19.3457h6.4467c10.6843,0,19.3457,8.6613,19.3457,19.3457v96.7228c0,10.6843-8.6613,19.3457-19.3457,19.3457ZM190.3436,163.3587l.2362-99.0271c0-10.048-8.8001-18.1935-19.6556-18.1935h-5.5906c-10.8555,0-19.6556,8.1455-19.6556,18.1935l-.2362,99.0271c0,10.048,8.8001,18.1935,19.6556,18.1935h5.5906c10.8555,0,19.6556-8.1455,19.6556-18.1935ZM118.3589,117.1466V20.2675c0-10.6412-8.6264-19.2675-19.2675-19.2675h-6.6029c-10.6412,0-19.2675,8.6264-19.2675,19.2675v96.8791c0,10.6412,8.6264,19.2675,19.2675,19.2675h6.6029c10.6412,0,19.2675-8.6264,19.2675-19.2675ZM46.1381,101.9198v-21.2874c0-10.755-8.7187-19.4737-19.4737-19.4737h-6.1907c-10.755,0-19.4737,8.7187-19.4737,19.4737v21.2874c0,10.755,8.7187,19.4737,19.4737,19.4737h6.1907c10.755,0,19.4737-8.7187,19.4737-19.4737ZM335.0216,117.4048v-7.1193c0-10.4986-8.5108-19.0094-19.0094-19.0094h-7.1193c-10.4986,0-19.0094,8.5108-19.0094,19.0094v7.1193c0,10.4986,8.5108,19.0094,19.0094,19.0094h7.1193c10.4986,0,19.0094-8.5108,19.0094-19.0094Z"/>
      <g>
        <g>
          <path class="cls-2" d="M32.0247,241.9717c-.5676-1.3735-1.419-2.6336-2.5428-3.7575-1.1919-1.1806-2.5201-2.066-3.9391-2.6336.9196-.5108,1.7936-1.1806,2.611-1.9979,2.259-2.259,3.4056-5.0402,3.4056-8.2756,0-3.2125-1.1465-5.9824-3.4056-8.2301-2.2477-2.259-5.0176-3.4056-8.2187-3.4056H1v44.4539h20.2518c3.2012,0,5.9711-1.1465,8.2301-3.4056,2.2476-2.2477,3.3942-5.0402,3.3942-8.2756,0-1.6119-.2838-3.099-.8514-4.4726ZM21.2518,255.9459H3.1796v-18.9689h18.0721c2.5769,0,4.8245.9422,6.6749,2.7925,1.8504,1.8391,2.7812,4.0753,2.7812,6.6749,0,2.6223-.9309,4.8927-2.7812,6.7204-1.839,1.8504-4.098,2.7812-6.6749,2.7812ZM19.935,215.8398c2.5655,0,4.8245.9422,6.6748,2.7812,1.8504,1.8617,2.7812,4.1094,2.7812,6.6862,0,2.5996-.9309,4.87-2.7812,6.7204-1.839,1.8504-4.098,2.7812-6.6748,2.7812H3.1796v-18.9689h16.7554Z"/>
          <path class="cls-2" d="M54.9327,223.1618l-.1135-.2384h-2.2364l-16.4148,35.2021h2.4292l3.065-6.6068h24.1341l3.065,6.6068h2.418l-16.3467-34.9637ZM42.6841,249.3504l11.0227-23.6232,11.0567,23.6232h-22.0794Z"/>
          <g>
            <path class="cls-2" d="M113.1678,223.1618l-.1135-.2384h-2.2363l-15.3931,33.0225h-16.937v-33.0225h-2.1682v35.2021h20.5128l.1476-.3179,2.9174-6.2889h24.1341l3.065,6.6068h2.418l-16.3467-34.9637ZM100.9305,249.3504l11.0113-23.6232,11.0567,23.6232h-22.068Z"/>
            <path class="cls-2" d="M96.8325,258.1255h.1476v-.3179l-.1476.3179Z"/>
          </g>
          <polygon class="cls-2" points="161.8786 222.9233 161.8786 258.1255 159.5515 258.1255 136.7229 226.7148 136.7229 258.1255 134.5547 258.1255 134.5547 222.9233 136.7342 222.9233 159.7104 254.5951 159.7104 222.9233 161.8786 222.9233"/>
          <path class="cls-2" d="M199.7371,252.336l1.4757,1.5666-.2951.2952c-3.6326,3.485-8.0371,5.2446-13.0887,5.2446-5.1992,0-9.7058-1.8617-13.3838-5.5397-3.678-3.678-5.5397-8.1734-5.5397-13.3838,0-5.1992,1.8617-9.6945,5.5397-13.3725,3.678-3.678,8.1846-5.551,13.3838-5.551s9.7058,1.8617,13.4065,5.517l.0795.1135c.0114.0341.0454.0681.0795.1022l.3065.3065-1.5666,1.4871-.386-.386c-3.3147-3.3147-7.2992-4.9608-11.9195-4.9608s-8.6047,1.646-11.8513,4.8927c-3.258,3.2466-4.904,7.2425-4.904,11.8513,0,4.6202,1.646,8.616,4.904,11.8627,3.2466,3.2466,7.2311,4.8927,11.8513,4.8927,4.518,0,8.4118-1.5666,11.5903-4.6429l.3178-.2952Z"/>
          <polygon class="cls-2" points="210.7144 225.0915 210.7144 239.4063 226.5729 239.4063 226.5729 241.5858 210.7144 241.5858 210.7144 255.9459 231.8515 255.9459 231.8515 258.1255 208.5461 258.1255 208.5461 222.9233 231.8515 222.9233 231.8515 225.0915 210.7144 225.0915"/>
          <polygon class="cls-2" points="262.2404 215.8398 262.2404 234.8087 280.744 234.8087 280.744 236.9883 262.2404 236.9883 262.2404 255.9459 286.0225 255.9459 286.0225 258.1255 260.0723 258.1255 260.0723 213.6715 286.0225 213.6715 286.0225 215.8398 262.2404 215.8398"/>
          <path class="cls-2" d="M328.7851,251.7684c4.0639-4.4272,6.13-9.7739,6.13-15.8926,0-3.2353-.579-6.2548-1.7369-9.0247-1.1465-2.7812-2.8721-5.324-5.1538-7.6058-4.5747-4.5748-10.1712-6.8906-16.6304-6.8906-6.5046,0-12.1239,2.3158-16.6872,6.8906-4.5748,4.5634-6.8907,10.1599-6.8907,16.6304,0,6.4933,2.3158,12.1125,6.8907,16.6759,4.5633,4.5748,10.1826,6.8906,16.6872,6.8906,6.0846,0,11.4087-2.0547,15.8358-6.13l6.3003,6.3116,1.5552-1.5552-6.3003-6.3003ZM311.3941,257.2741c-5.8803,0-10.9773-2.1114-15.1321-6.2663-4.166-4.1661-6.2776-9.2518-6.2776-15.1321,0-5.8462,2.1116-10.9205,6.2776-15.0866,4.1548-4.1548,9.2518-6.2663,15.1321-6.2663,5.8347,0,10.9091,2.1115,15.0753,6.2663,4.1547,4.1661,6.2663,9.2404,6.2663,15.0866,0,5.5057-1.8505,10.3302-5.5058,14.3374l-15.7903-15.7904-1.5553,1.5552,15.7905,15.7791c-4.0071,3.6666-8.8091,5.517-14.2806,5.517Z"/>
        </g>
        <g>
          <path class="cls-2" d="M148.2807,306.9304c2.9289-2.9289,4.416-6.516,4.416-10.6481s-1.4872-7.7192-4.416-10.6481c-2.94-2.9402-6.5273-4.4273-10.6596-4.4273h-15.0639v41.1279h2.0664v-10.9885h12.9976c1.6124,0,3.1561-.2159,4.5862-.6471l6.6864,11.6357h2.4522l-7.1631-12.4419c1.4755-.715,2.8491-1.7139,4.0979-2.9627ZM124.6236,283.2844h12.9976c3.5757,0,6.6753,1.2829,9.1951,3.803,2.5314,2.5314,3.803,5.6191,3.803,9.195s-1.2715,6.6635-3.803,9.195c-2.5198,2.5201-5.6194,3.803-9.1951,3.803h-12.9976v-25.9959Z"/>
          <polygon class="cls-2" points="162.8989 291.821 162.8989 304.9893 177.5427 304.9893 177.5427 307.0551 162.8989 307.0551 162.8989 320.2575 182.4238 320.2575 182.4238 322.335 160.8214 322.335 160.8214 289.755 182.4238 289.755 182.4238 291.821 162.8989 291.821"/>
          <path class="cls-2" d="M213.1309,314.2409c0,.7153-.0909,1.4531-.2616,2.1911-.5787,2.486-1.9411,4.4044-4.0408,5.687-1.5897.8855-3.2808,1.4531-5.0518,1.7255-.965.1364-1.9184.1932-2.838.1932-3.7348,0-7.3443-.9877-10.705-2.9289-.102-.0682-.1813-.1134-.2267-.1361l-.4429-.2273,1.317-1.8389.4994.5108c3.0309,1.6573,6.2773,2.5087,9.6491,2.5087.7949,0,1.6346-.0568,2.4976-.1474,1.4073-.1591,2.8491-.6358,4.2791-1.419,1.567-.9877,2.5885-2.4749,3.0198-4.4047.1474-.6244.2273-1.2147.2273-1.7596,0-1.1806-.3065-2.3158-.9196-3.3487-.9085-1.4869-2.4184-2.5542-4.4842-3.1786l-7.708-1.8161v.0227l-.5332-.1023c-2.7587-.7718-4.8018-2.1342-6.0506-4.03-.9196-1.3281-1.3852-2.8607-1.3852-4.5294,0-.647.0682-1.3394.1929-2.032.5909-2.2363,1.7826-3.9844,3.5763-5.2103,1.7704-1.2034,4.0862-1.8619,6.8904-1.9299h.352c4.3362,0,8.1957,1.1465,11.4655,3.3942l.0903.068.0571.1023.4429.2952-.3409.3973-1.6457,1.5552v-.9423c-2.8834-1.8502-6.2552-2.7925-10.0238-2.7925h-.3858c-2.3956.0682-4.3368.5903-5.733,1.5553-1.3963.9647-2.3158,2.2817-2.7354,3.9391-.1253.5676-.1818,1.1238-.1818,1.646,0,1.2375.3631,2.3613,1.0897,3.3601.965,1.3849,2.4744,2.4067,4.4953,3.0651l.2838.0453,8.3437,1.9525c2.588.7153,4.4953,2.0888,5.687,4.0981.8176,1.3622,1.2377,2.8607,1.2377,4.4612Z"/>
          <polygon class="cls-2" points="239.2623 289.755 239.2623 291.821 229.5002 291.821 229.5002 322.335 227.4338 322.335 227.4338 291.821 217.6716 291.821 217.6716 289.755 239.2623 289.755"/>
          <path class="cls-2" d="M274.2602,299.3247c-.8625-2.0661-2.134-3.9618-3.8368-5.6646-3.4056-3.4056-7.5716-5.1311-12.3851-5.1311s-8.9789,1.7255-12.3845,5.1311c-3.4056,3.4056-5.1311,7.5716-5.1311,12.3848s1.7255,8.9792,5.1311,12.3848c3.4056,3.4056,7.5716,5.12,12.3845,5.12s8.9795-1.7144,12.3851-5.12c3.3945-3.4056,5.1194-7.5716,5.1194-12.3848,0-2.4066-.4312-4.6542-1.2826-6.7202ZM258.0384,321.4836c-4.2569,0-7.9347-1.5212-10.9317-4.5183-2.9854-2.9854-4.5064-6.6634-4.5064-10.9203s1.521-7.9349,4.5064-10.9319c2.997-2.9855,6.6748-4.5067,10.9317-4.5067s7.9352,1.5211,10.9206,4.5067c2.997,2.9969,4.518,6.6749,4.518,10.9319s-1.521,7.9349-4.518,10.9203c-2.9854,2.997-6.6637,4.5183-10.9206,4.5183Z"/>
          <path class="cls-2" d="M302.2086,311.3237c2.4522-2.4522,3.6894-5.4603,3.6894-8.9454s-1.2372-6.4819-3.6894-8.9339-5.4603-3.6894-8.9451-3.6894h-12.3851v32.5799h2.0775v-7.3219h10.3076c1.1917,0,2.3158-.1364,3.3601-.4202l4.4953,7.742h2.4522l-4.9154-8.4798c1.2826-.6017,2.4744-1.4531,3.553-2.5314ZM282.9559,291.821h10.3076c2.8945,0,5.4032,1.0444,7.458,3.099,2.0548,2.0548,3.099,4.5635,3.099,7.4583,0,2.9061-1.0443,5.4149-3.099,7.4696-2.0431,2.0545-4.5635,3.0877-7.458,3.0877h-10.3076v-21.1146Z"/>
          <polygon class="cls-2" points="315.6429 291.821 315.6429 304.9893 330.2867 304.9893 330.2867 307.0551 315.6429 307.0551 315.6429 320.2575 335.1678 320.2575 335.1678 322.335 313.5765 322.335 313.5765 289.755 335.1678 289.755 335.1678 291.821 315.6429 291.821"/>
        </g>
      </g>
    </g>
  </g>
</svg>