<?xml version="1.0" encoding="UTF-8"?>
<svg id="Layer_2" data-name="Layer 2" xmlns="http://www.w3.org/2000/svg" viewBox="0 0 71.9355 69.912">
  <defs>
    <style>
      .cls-1 {
        fill: #7fcae5;
      }

      .cls-2 {
        fill: none;
        stroke: #1b1a1a;
        stroke-linecap: round;
        stroke-miterlimit: 10;
        stroke-width: 2.75px;
      }
    </style>
  </defs>
  <g id="Layer_1-2" data-name="Layer 1">
    <g>
      <path class="cls-1" d="M37.9928,8.3309l.908-4.0836c.3695-1.6616,2.6999-1.6616,3.0694,0l3.8835,17.4654,14.903-9.5602c1.4178-.9095,3.0657.7645,2.1704,2.2048l-9.4108,15.1396,17.1925,3.9452c1.6356.3753,1.6356,2.7427,0,3.118l-17.1925,3.9452,9.4108,15.1396c.8953,1.4402-.7526,3.1143-2.1704,2.2048l-14.903-9.5602-3.8835,17.4654c-.3695,1.6616-2.6999,1.6616-3.0694,0l-3.8835-17.4654-14.903,9.5602c-1.4178.9095-3.0657-.7646-2.1704-2.2048l9.4108-15.1396-17.1925-3.9452c-1.6356-.3753-1.6356-2.7427,0-3.118l17.1925-3.9452-9.4108-15.1396c-.8953-1.4403.7526-3.1143,2.1704-2.2048l14.903,9.5602,1.1183-5.0292"/>
      <path class="cls-2" d="M32.7944,6.9682l.9819-4.2854c.3995-1.7437,2.9193-1.7437,3.3188,0l4.1992,18.3283,16.1146-10.0326c1.533-.9544,3.3148.8024,2.3468,2.3138l-10.1759,15.8876,18.5901,4.14c1.7686.3939,1.7686,2.8783,0,3.2721l-18.5901,4.1401,10.1759,15.8876c.968,1.5114-.8138,3.2682-2.3468,2.3138l-16.1146-10.0326-4.1992,18.3283c-.3995,1.7437-2.9193,1.7437-3.3188,0l-4.1993-18.3283-16.1145,10.0326c-1.533.9544-3.3149-.8024-2.3468-2.3138l10.1758-15.8876-18.5901-4.1401c-1.7686-.3938-1.7686-2.8782,0-3.2721l18.5901-4.14-10.1758-15.8876c-.9681-1.5114.8138-3.2682,2.3468-2.3138l16.1145,10.0326,1.2092-5.2777"/>
      <path class="cls-2" d="M28.7387,36.7232l3.1323,3.0882c.6164.6076,1.6158.6076,2.2322,0l8.0287-7.9156"/>
    </g>
  </g>
</svg>