<?xml version="1.0" encoding="UTF-8"?>
<svg id="Layer_2" data-name="Layer 2" xmlns="http://www.w3.org/2000/svg" viewBox="0 0 190.7656 102.1241">
  <defs>
    <style>
      .cls-1 {
        fill: #181818;
      }
    </style>
  </defs>
  <g id="Orig">
    <g>
      <path class="cls-1" d="M0,89.3526l4.5381-35.7383c.3364-2.6895,2.2969-4.1445,4.3691-4.1445,2.2959,0,3.7525.8398,4.8721,4.5937l7.9551,26.3828h.1113l7.9551-26.3828c1.1191-3.7539,2.5757-4.5937,4.8735-4.5937,2.0728,0,4.0337,1.455,4.3696,4.1445l4.5362,35.7383h-5.4898l-3.7514-31.8164h-.1128l-8.4024,27.334c-1.1772,3.8652-2.0727,4.4824-3.978,4.4824h-.1113c-1.9033,0-2.8008-.6172-3.9746-4.4824l-8.4038-27.334h-.1128l-3.752,31.8164H0Z"/>
      <path class="cls-1" d="M66.4429,89.3526v-15.125c0-5.041-4.2583-7.6172-8.7398-7.6172-5.4336,0-8.8506,4.3125-8.8506,9.4102,0,4.9843,3.6416,9.1855,8.794,9.1855,2.8008,0,5.0967-1.5684,6.7783-3.6953v5.8242c-1.9604,1.457-3.8672,2.5781-7.2832,2.5781-7.7295,0-13.2192-6.3867-13.2192-14.2851,0-7.6739,5.2656-13.7227,13.8935-13.7227,8.2905,0,13.5542,5.041,13.5542,12.7715v14.6758h-4.9272Z"/>
      <path class="cls-1" d="M93.3877,88.1202c-1.8477,1.0078-4.4805,1.7929-6.3272,1.7929-7.8442,0-13.8935-5.8261-13.8935-13.6679,0-8.0664,5.4888-14.3399,13.8935-14.3399,8.1768,0,13.2178,6.6094,13.2178,13.3301v11.9883c0,10.082-6.1631,14.9004-14.0615,14.9004-3.0225,0-5.9912-.6172-8.8496-1.5684l1.1767-4.4824c2.4649.6719,4.9297,1.3457,7.4512,1.3457,4.4238,0,9.3535-1.9609,9.3535-8.5156v-12.5469c0-6.0488-3.9199-9.7461-8.5136-9.7461-5.8838,0-8.7383,4.6484-8.7383,9.9141s3.9199,8.6816,9.0176,8.6816c2.2392,0,4.3696-1.0625,6.2734-2.1836v5.0977Z"/>
      <path class="cls-1" d="M117.0303,67.1709h-9.6358v14.1153c0,2.5195,1.1758,3.3613,3.6983,3.3613h5.9375v4.7051h-6.6104c-5.039,0-7.9551-3.3613-7.9551-8.6836v-24.9258h4.9297v6.7207h9.6358v4.707ZM127.1719,80.501l-2.0166-3.9199,13.2744-7.3945c-1.6787-1.6797-3.0801-2.5762-6.1055-2.5762-5.0976,0-8.7939,3.8086-8.7939,9.2988s3.6963,9.2969,8.7939,9.2969c5.8281,0,8.0108-3.4727,9.0195-8.4023l4.9844.6171c-.5595,7.1133-6.2734,12.4922-14.0039,12.4922-7.4492,0-13.9472-5.7148-13.9472-14.0039s6.498-14.0039,13.9472-14.0039c6.2735,0,10.4756,3.3047,12.9961,8.5137l-18.1484,10.082ZM152.2695,53.503c1.9043,0,2.9698,1.4551,2.9698,2.9687,0,1.5117-1.0655,2.9688-2.9698,2.9688-1.9033,0-2.9687-1.4571-2.9687-2.9688,0-1.5136,1.0654-2.9687,2.9687-2.9687ZM149.8057,89.3526v-26.8887h4.9287v26.8887h-4.9287ZM159.2168,89.3526v-15.6856c0-7.0566,4.9297-11.7617,11.4824-11.7617,6.5567,0,11.4854,4.7051,11.4854,11.7617v15.6856h-4.9287v-15.6856c0-4.1445-3.0264-7.0566-6.5567-7.0566-3.5273,0-6.5527,2.9121-6.5527,7.0566v15.6856h-4.9297Z"/>
      <path class="cls-1" d="M122.9434,0c-21.8643,0-39.5596,10.1631-39.5596,22.7129,0,7.0108,5.5386,13.2784,14.2451,17.4434-1.1196-1.8652-1.9546-3.8691-2.4165-5.9785-.4116-1.8643-.5269-3.753-.3765-5.6397-1.3359-1.8066-2.0786-3.7724-2.0786-5.8291,0-8.8388,13.5044-15.9951,30.1841-15.9951,16.669,0,30.169,7.1563,30.169,15.9951,0,8.8291-12.2471,15.3975-28.919,15.3975-2.3281,0-4.585-.1494-6.7588-.4131h0c-1.4482-.2031-2.79-.5684-3.9853-1.083-1.5664-.665-4.2881-2.2119-4.8496-5.041-.1563-.8076-.1241-1.6582.1103-2.5313.9834-3.5283,3.8838-5.5683,8.252-7.1269,4.4375-1.5791,8.7255-1.836,13.8789-.3994.5244.1484,1.0459.3144,1.5615.4902,2.1035.8271,4.4316,2.1299,5.959,3.5166,1.6142,1.4668,3.1933,3.5156,4.3847,5.5645,2.1846-1.1856,4.0215-2.5508,5.4297-4.0518-1.4443-2.3613-3.3164-4.6924-5.2636-6.4619-.1319-.1182-.2637-.2354-.3926-.3506-1.6582-1.4463-3.4571-2.8125-5.2012-3.6582v-.0098c-.0371-.0176-.0762-.0273-.1084-.0429-.7158-.3418-1.4434-.626-2.1728-.8663-.8184-.2959-1.6504-.5625-2.4913-.7998-6.5703-1.831-13.2646-1.4931-19.0107.5586-.167.0586-.3301.1182-.4961.1836-6.209,2.3565-10.4795,6.7061-12.0283,12.2451l-.0088.0313c-.5137,1.8877-.5889,3.7744-.2168,5.6133.8496,4.2558,4.0479,7.8564,8.7783,9.8828.8408.3603,1.7305.6738,2.6436.9267,1.4306.3995,2.9472.6504,4.498.7803.0137.0235.0225.044.0332.0664,2.0244.1826,4.0957.2803,6.2071.2803,21.8486,0,39.542-10.1641,39.542-22.6973,0-12.5498-17.6934-22.7129-39.542-22.7129Z"/>
      <path class="cls-1" d="M152.2197,49.4239c.835,0,1.6299.1679,2.3565.4668-.2969-1.961-1.042-5.9278-1.6328-8.9414-1.9893.9892-4.0987,1.9004-6.3106,2.7324.4883,2.6123,1.0156,5.6035,1.2793,7.4834,1.1182-1.0762,2.6328-1.7412,4.3076-1.7412Z"/>
      <path class="cls-1" d="M156.2646,55.6407c0,2.2314-1.8115,4.0429-4.0449,4.0429-2.2353,0-4.0459-1.8115-4.0459-4.0429,0-2.2383,1.8106-4.0459,4.0459-4.0459,2.2334,0,4.0449,1.8076,4.0449,4.0459Z"/>
      <path class="cls-1" d="M186.2305,49.8072c2.4668,0,4.5351,1.9477,4.5351,4.5,0,2.6006-2.0683,4.5483-4.5351,4.5483-2.4785,0-4.5586-1.9477-4.5586-4.5483,0-2.5523,2.0801-4.5,4.5586-4.5ZM186.2305,58.1905c2.0918,0,3.7138-1.6695,3.7138-3.8833,0-2.1656-1.622-3.835-3.7138-3.835-2.1153,0-3.7383,1.6694-3.7383,3.835,0,2.2138,1.623,3.8833,3.7383,3.8833ZM184.4629,51.6822h2.0449c1.2578,0,1.8496.4951,1.8496,1.5117,0,.9556-.6015,1.3559-1.3887,1.4404l1.5127,2.3345h-.8837l-1.4415-2.2739h-.8691v2.2739h-.8242v-5.2866ZM185.2871,54.0298h.8613c.7227,0,1.3868-.0366,1.3868-.8716,0-.7016-.6036-.81-1.1602-.81h-1.0879v1.6816Z"/>
    </g>
  </g>
</svg>