<?xml version="1.0" encoding="UTF-8"?>
<svg id="Layer_2" data-name="Layer 2" xmlns="http://www.w3.org/2000/svg" viewBox="0 0 813.9031 157.7184">
  <defs>
    <style>
      .cls-1 {
        fill: #191819;
      }
    </style>
  </defs>
  <g id="Livello_1" data-name="Livello 1">
    <g>
      <g>
        <path class="cls-1" d="M209.18,131.2116c-3.9786,0-6.9772-2.9971-6.9772-6.9832v-4.3306c-19.2273-3.6709-33.2552-20.323-33.2552-40.19,0-10.4759,4.0563-20.6013,11.4589-28.5769l.1174-.093c7.3614-7.3689,17.8114-11.6065,28.6561-11.6065,11.1509,0,21.0723,4.0241,28.7567,11.579l.1357.1205c7.6676,8.2483,11.8946,18.4165,11.8946,28.5769,0,10.6819-4.2513,20.8834-11.9891,28.7311-5.8985,5.8329-13.522,9.7856-21.796,11.4342v4.3553c0,4.2572-2.7399,6.9832-7.0019,6.9832ZM209.18,89.3321c3.9955,0,7.0019,3.0111,7.0019,7.0019v8.9626c4.3381-1.0757,8.3336-3.3201,11.5516-6.5413,5.0637-5.0287,7.7347-11.6433,7.7347-19.0475,0-7-2.7472-13.5829-7.7347-18.5457l-.1111-.1189c-4.4145-4.7725-11.3231-7.6326-18.4424-7.6326-6.883,0-13.4824,2.7824-18.5625,7.7696-4.9357,5.0209-7.6845,11.6296-7.6845,18.5276,0,12.1842,8.0106,22.4226,19.2698,25.4793v-8.8531c0-3.7165,3.2639-7.0019,6.9772-7.0019Z"/>
        <path class="cls-1" d="M290.1064,120.4873c-16.9566,0-30.244-13.0982-30.244-29.8249v-23.1553c0-3.8004,3.322-7.0706,7.0965-7.0706,4.0547,0,7.5137,3.2368,7.5137,7.0706v23.1553c0,8.7707,6.8721,15.6506,15.6338,15.6506,8.742,0,15.6235-6.8799,15.6235-15.6506l.4097-23.6506c0-3.9526,3.0493-7.0262,7.0887-7.0262,3.8766,0,7.1024,3.2608,7.1024,7.1192v23.5576c0,16.7267-13.2842,29.8249-30.2243,29.8249Z"/>
        <path class="cls-1" d="M380.8171,121.1944c-2.886,0-5.9608-2.0481-6.9423-5.2587-4.7725,3.0309-10.3907,4.7391-16.0941,4.7391-17.0771,0-30.4484-13.3712-30.4484-30.439,0-16.4523,13.6609-29.7993,30.4484-29.7993,16.7173,0,30.337,13.347,30.337,29.7993v23.4387c0,4.3627-3.0826,7.5199-7.3006,7.5199ZM357.7807,74.4922c-8.8288,0-15.7452,6.9239-15.7452,15.7436,0,9.016,7.0687,16.3409,15.7452,16.3409,8.1538,0,15.1797-6.6923,15.7452-14.9406v-1.4003c0-8.6674-7.0718-15.7436-15.7452-15.7436Z"/>
        <path class="cls-1" d="M428.2571,120.5803c-16.1125,0-29.7306-13.6181-29.7306-29.7306v-44.1165c0-4.1246,3.1588-7.0962,7.4956-7.0962,3.9099,0,7.0016,3.1254,7.0016,7.0962v13.772h16.1537c4.1156,0,7.0856,3.1681,7.0856,7.5231,0,3.9707-3.0536,6.9847-7.0856,6.9847h-16.1537v16.2636c0,8.2648,6.9851,15.2072,15.2334,15.2072,4.1399,0,7.4953,3.1846,7.4953,7.1114,0,3.8338-3.3554,6.9851-7.4953,6.9851Z"/>
        <path class="cls-1" d="M453.9723,120.6748c-4.1234,0-7.6235-3.2701-7.6235-7.1891v-46.09c0-3.8338,3.5001-7.0962,7.6235-7.0962,2.9288,0,5.6441,2.0831,6.6712,4.7756,4.7893-3.0751,10.5005-4.7756,16.5712-4.7756,4.0304,0,7.7347.71,11.3232,2.1271l3.2258,1.1353,1.58.7771.8626.6737c1.2633.7268,3.1329,2.4348,3.1329,6.0982,0,.7936,0,2.3649-1.2633,4.012-1.4093,1.9732-3.689,3.1513-6.0875,3.1513-1.3501,0-2.6377-.3689-3.7758-1.0608l-1.3715-.768-.352-.3489-.94-.4768c-2.4672-.7955-4.32-1.1275-6.3344-1.1275-9.0497,0-16.1384,7.1539-16.1384,16.2648v22.7287c0,3.782-3.3797,7.1891-7.104,7.1891Z"/>
        <path class="cls-1" d="M529.625,120.667c-7.0306,0-13.6119-2.3829-19.0609-6.8752-5.856-4.7297-9.6655-11.7301-10.7396-19.6795l-.035-.2986c-.5136-8.5058,1.9655-16.2742,6.9683-21.9092,4.7631-6.2336,11.8243-9.9991,19.911-10.6482,7.7028-.998,15.0945,1.1703,21.7903,6.3697l.4266.3595.6323.6323c1.2632,1.2298,2.5508,2.4931,3.6175,4.0123l.2774.4022c.4129.6142,1.2782,1.903,1.2782,3.9511,0,1.8285-1.0741,3.689-1.6137,4.4158l-.2849.3583-.3717.2908c-.2409.2135-18.7501,15.7621-27.905,23.532,1.5969.5361,3.2945.8089,5.0225.8089,4.6245,0,9.016-1.9717,12.0287-5.4291,1.2371-1.7495,3.2197-2.7581,5.4244-2.7581,1.5011,0,3.0218.4603,4.3703,1.3394l.5105.3689c2.5815,2.2703,3.2196,6.4973,1.478,9.4685l-.2147.3508-.2531.2893c-5.891,6.7716-14.3783,10.6481-23.2574,10.6481ZM529.3857,75.2599c-.5561,0-1.0679.0168-1.6259.0427-3.7561.3171-7.6751,2.5265-10.1498,5.6884l-.1629.2116c-2.3664,2.6898-3.4652,5.7037-3.4652,9.5544,0,1.452.2225,2.9209.6978,4.4142,3.8263-3.2792,9.5284-8.0776,16.1658-13.6028,2.0725-1.7401,4.0123-3.3629,5.6426-4.7023-2.0662-1.0866-4.4342-1.6062-7.1024-1.6062Z"/>
        <path class="cls-1" d="M570.2138,120.4873c-3.3157,0-7.2927-3.1238-7.2927-7.0016v-44.7322c0-15.7864,13.7142-29.1165,29.9178-29.1165,3.6023,0,7.0035,3.3997,7.0035,6.9851,0,3.7133-3.331,7.0946-7.0035,7.0946-5.7202,0-10.4134,2.5968-12.9459,6.7885h12.0256c3.9923,0,7.104,3.2608,7.104,7.3858,0,3.9267-3.1756,7.122-7.104,7.122h-14.6099v38.4727c0,3.8519-3.1846,7.0016-7.0949,7.0016Z"/>
        <path class="cls-1" d="M631.8936,120.6748c-16.9414,0-30.7408-13.7476-30.7408-30.6446,0-16.6733,13.7994-30.2334,30.7408-30.2334,8.4265,0,15.9084,3.0414,21.662,8.8044l.1099.1096c5.7536,6.2582,8.7617,13.6196,8.7617,21.3194,0,16.897-13.6806,30.6446-30.5336,30.6446ZM631.8936,73.971c-8.8229,0-16.0332,7.1967-16.0332,16.0592,0,9.2475,7.0368,16.4536,16.0332,16.4536,8.8868,0,16.3837-7.5397,16.3837-16.4536,0-3.7973-1.8834-8.0184-4.9067-10.9531l-.259-.2911c-2.6451-3.0992-6.6437-4.815-11.218-4.815Z"/>
        <path class="cls-1" d="M678.7194,120.2832c-4.0472,0-7.2013-3.0917-7.2013-7.0019V46.546c0-4.2623,2.8798-7.1146,7.2013-7.1146,4.0807,0,7.1892,3.0414,7.1892,7.1146v66.7353c0,3.7395-3.3554,7.0019-7.1892,7.0019Z"/>
        <path class="cls-1" d="M705.1693,120.888c-4.096,0-7.3081-3.1678-7.3081-7.2135v-46.8c0-4.2953,3.0049-7.2821,7.3081-7.2821,3.4131,0,7.0914,2.7733,7.0914,7.2821v46.8c0,3.782-3.3856,7.2135-7.0914,7.2135Z"/>
        <path class="cls-1" d="M750.9556,120.5803c-16.6365,0-30.1707-13.5145-30.1707-30.1313,0-16.6321,13.5342-30.1495,30.1707-30.1495,9.7278,0,18.6786,4.6218,24.0119,12.373,1.1032,1.2985,1.7036,3.0233,1.5847,4.7893-.1067,1.9642-1.0879,3.7836-2.6513,4.9523l-.2743.1875c-1.332.8457-2.9104,1.3348-4.419,1.3348-2.4076,0-4.5075-1.1032-5.821-3.0415-2.8707-4.0045-7.6432-6.4973-12.431-6.4973-8.7036,0-16.0698,7.343-16.0698,16.0514,0,8.556,7.2198,15.5136,16.0698,15.5136,6.1621,0,11.0994-2.9453,13.5679-8.0942l.259-.4359c1.3135-2.1165,3.6999-3.4131,6.208-3.4131,1.2645,0,2.4775.3245,3.5442.9552,1.5207.675,2.691,1.9735,3.2973,3.5869.7162,1.9367.4787,4.183-.6519,6.0451-5.4796,9.9882-15.2989,15.9737-26.2245,15.9737Z"/>
      </g>
      <g>
        <g>
          <path class="cls-1" d="M19.8076,20.1692s11.4512-36.8253,37.9618-10.3221c0,0,24.4279,24.6945,12.8502,60.8781L19.8076,20.1692Z"/>
          <path class="cls-1" d="M19.954,20.0322s-36.877,11.4526-10.3663,37.9633c0,0,24.8801,24.3256,61.0319,12.7297L19.954,20.0322Z"/>
        </g>
        <g>
          <path class="cls-1" d="M137.2881,137.3862s-11.4604,36.8496-37.9788,10.3554c0,0-24.4035-24.7446-12.8256-60.9039l50.8044,50.5485Z"/>
          <path class="cls-1" d="M137.1326,137.5216s36.8434-11.4589,10.3311-37.9527c0,0-24.8283-24.309-60.98-12.7312l50.6489,50.6839Z"/>
        </g>
        <g>
          <path class="cls-1" d="M136.1589,19.8019s36.845,11.4345,10.3237,37.9636c0,0-24.7097,24.4535-60.869,12.8486l50.5453-50.8122Z"/>
          <path class="cls-1" d="M136.2717,19.9223s-11.4512-36.8511-37.9361-10.3145c0,0-24.2936,24.847-12.722,61.0063l50.6581-50.6918Z"/>
        </g>
        <g>
          <path class="cls-1" d="M22.1557,137.9223s-36.8418-11.4068-10.3143-37.9618c0,0,24.702-24.411,60.8962-12.8485l-50.5819,50.8103Z"/>
          <path class="cls-1" d="M22.0461,137.7838s11.4649,36.8542,37.9587,10.342c0,0,24.3029-24.8377,12.7328-61.0138l-50.6915,50.6718Z"/>
        </g>
      </g>
      <path class="cls-1" d="M813.9031,50.9755c0,7.1755-5.7416,12.8394-13.0649,12.8394-7.2501,0-13.1411-5.6639-13.1411-12.8394,0-7.0231,5.891-12.687,13.1411-12.687,7.3233,0,13.0649,5.6639,13.0649,12.687ZM791.3207,51.0517c0,5.4368,4.0776,9.8177,9.5175,9.8177,5.4369,0,9.4383-4.3809,9.4383-9.8177s-4.0014-9.8177-9.4383-9.8177c-5.4399,0-9.5175,4.3793-9.5175,9.8177ZM799.0249,57.319h-3.3218v-12.1582c.9813-.1509,2.7915-.3779,5.0589-.3779,2.5661,0,3.6998.3779,4.5317.9066.829.5288,1.3593,1.4354,1.3593,2.6423,0,1.2845-1.1337,2.342-2.7185,2.7946v.1508c1.2831.4541,1.9627,1.4354,2.3406,3.0979.3779,1.8117.6796,2.4913.9051,2.9439h-3.6998c-.3779-.4526-.6034-1.5101-.9051-2.7931-.2286-1.2845-.9082-1.8133-2.2674-1.8133h-1.283v4.6064ZM799.1011,50.3721h1.283c1.4354,0,2.4929-.5288,2.4929-1.5863s-.832-1.6609-2.3405-1.6609c-.6065,0-1.0575.0747-1.4354.0747v3.1725Z"/>
    </g>
  </g>
</svg>