<?xml version="1.0" encoding="UTF-8"?>
<svg id="Layer_2" data-name="Layer 2" xmlns="http://www.w3.org/2000/svg" viewBox="0 0 1000.5 181.0256">
  <defs>
    <style>
      .cls-1, .cls-2 {
        fill: #191819;
      }

      .cls-2 {
        fill-rule: evenodd;
      }
    </style>
  </defs>
  <g id="Layer_1-2" data-name="Layer 1">
    <g>
      <g>
        <g>
          <path class="cls-2" d="M16.8,146.3256c.6,13.4,7,20.1,19.4,20.1s20.4-7,20.4-20.9c0-6.7-3-12.9-9.1-18.5-5.6-4.7-11.2-9.4-16.9-14.2-6.1-6.2-9.1-13.3-9.1-21.3,0-13.8,4.6-25.3,13.9-34.5,9.3-9.1,20.5-13.7,33.6-13.7,15.2,0,22.8,3.8,22.8,11.4,0,5.2-3.4,10.4-10.3,15.5-4.2-8.7-11.1-13-20.7-13-11.7,0-17.5,5.7-17.5,17.2s.9,5.5,2.6,8.2c1.7,2.8,9.9,10.5,24.6,23.1,6.3,7,9.5,14.9,9.5,23.8,0,14.1-5.4,26.2-16.1,36.3-10.7,10.1-22.8,15.1-36.2,15.2-6.7,0-13-1.4-18.9-4.2-5.9-2.8-8.8-6.5-8.8-11.1,0-7.6,5.6-14.1,16.8-19.4Z"/>
          <path class="cls-2" d="M154.1,73.8256c4.3-1.4,8.8-2.2,13.4-2.2,7.8,0,11.8,3.2,11.8,9.5,0,3.3-.5,7.5-1.6,12.5l-2.8,12.3c-4.2,20.3-6.4,36.2-6.4,47.7s1.2,13.8,3.6,19.3c-4.1,3.9-8.7,5.8-13.9,5.8-9.6,0-14.4-5.9-14.4-17.8s.6-14.1,1.9-23c-12.4,27.9-24.9,41.9-37.4,41.9-9.6,0-14.4-5.5-14.4-16.5s1.9-21.4,5.7-40c3.9-18.6,5.8-31.9,5.8-40.2,0-2.8-.5-5.4-1.4-7.9,6.1-2.4,11.3-3.6,15.8-3.6,7,0,10.5,3.3,10.5,9.8s-.6,6.5-1.9,12.8c-6.5,32.4-9.8,52-9.8,59.1s.8,4.2,2.3,4.2c2.9,0,9.4-10,19.4-30.1,10.1-20,15.1-35.6,15.1-46.6,0-1.9-.4-4.3-1.2-7h-.1Z"/>
          <path class="cls-2" d="M218.3,112.5256c12.3-27.9,24.7-41.9,37.4-41.9,9.6,0,14.4,5.5,14.4,16.5,0,7.8-1.7,19.6-5.1,35.3-3.3,15.7-5,27.5-5,35.4s1.4,11.5,4.1,15.5c-5.2,3.7-10.4,5.6-15.5,5.6-8.6,0-12.9-4.6-12.9-13.9s.9-15.4,2.7-25.5c4.6-25.6,6.9-39.7,6.9-42.2,0-2.8-.8-4.2-2.3-4.2-3,0-9.5,10-19.5,30.1s-15,35.6-15,46.7.4,4.3,1.2,7c-4.6,1.4-9.1,2.2-13.5,2.2-7.8,0-11.8-3.2-11.8-9.5s.6-7.4,1.7-12.5l2.7-12.3c6.4-30.5,9.6-50.9,9.6-61.2s-.5-5.5-1.4-8c6.1-2.4,11.3-3.6,15.7-3.6,7,0,10.5,3.3,10.5,9.8s-1.7,13.9-5.2,31.1l.3-.4Z"/>
          <path class="cls-2" d="M294.2,102.3256h-3.1c-5.2,0-10.3,1.1-15.3,3.4-.2-2.5-.3-4.3-.3-5.4,0-4.8,1-8.3,3.1-10.6,2.1-2.3,8.3-3.5,18.5-3.5,2.5-14.1,3.7-23.2,3.7-27.2s-.7-6.4-2-9.6c6.2-2.6,11.9-3.9,17.2-3.9s10.4,3,10.4,8.9c0,3.8-.8,9.2-2.3,15.9-2.3,10.4-3.5,15.7-3.6,15.9h7.5c6.1,0,12.6-.8,19.8-2.3-.6,12.4-7,18.6-19.1,18.6s-2.9,0-5.4,0c-2.5-.1-4.4-.2-5.7-.2-4.2,22.5-6.3,37.6-6.3,45.3s2.6,12.2,7.9,12.2,10.2-2.6,16.5-7.8c1.5,3.3,2.3,6.2,2.3,8.7,0,5.4-3,10-9,13.6s-12.2,5.5-18.8,5.5c-15.1,0-22.7-8.4-22.7-25.2s2.2-28.4,6.7-52.2v-.1Z"/>
          <path class="cls-2" d="M381.6,112.5256c11.7-26.6,24-39.8,37.1-39.8,9.6,0,14.4,5.5,14.4,16.5s-1.6,19.1-4.9,34.3c-3.2,15.2-4.8,26.6-4.8,34.3s1.4,11.5,4.1,15.5c-5.2,3.7-10.4,5.6-15.5,5.6-8.6,0-12.9-4.6-12.9-13.9s1.5-18.4,4.6-33.6c3.1-15.3,4.6-25.9,4.7-31.9,0-2.9-.8-4.3-2.3-4.3-4.2,0-11,10.1-20.2,30.3-9.3,20.2-13.9,35-13.9,44.3s.4,4.3,1.2,7c-4.6,1.4-9.1,2.2-13.5,2.2-7.8,0-11.8-3.2-11.8-9.5s.8-9.6,2.4-16.6c2.4-10.5,3.7-16.1,3.8-16.8l9.3-52.8c2-11.4,3-20,3-25.8,0-1.7-.3-3.9-.8-6.6,5.2-3.5,10.3-5.3,15.2-5.3,7.1,0,10.6,3.4,10.6,10.1,0,3.6-3.3,22.6-9.8,57v-.2Z"/>
          <path class="cls-2" d="M467.5,134.5256c-.4,4.1-.6,7.5-.6,10.3,0,13,4.6,19.5,13.9,19.5s18.6-5,29.8-15c1.1,2.7,1.7,5,1.7,7.1,0,6.7-4.4,12.3-13.3,16.8s-17.8,6.7-26.7,6.7c-21.4,0-32.1-10.5-32.1-31.5s5.7-37.7,17.2-53.7c11.4-16,25.2-24.1,41.2-24.1,13.2,0,19.8,6.3,19.8,18.9,0,13.4-4.9,24.1-14.6,32.2-9.7,8.1-21.8,12.3-36.4,12.8h.1ZM468.8,121.2256c18-.4,26.9-9,26.9-25.8,0-7.2-2.3-10.8-6.8-10.8-8.6,0-15.3,12.2-20.2,36.6h.1Z"/>
          <path class="cls-2" d="M577.8,137.8256c-13.7,28-26.3,42-37.9,42s-18-9.5-18-28.5,4.8-36.7,14.4-54.3c9.7-17.6,21.2-26.5,34.7-26.5,6.7,0,12.5,1.9,17.6,5.7,2.5-3.1,5.9-4.7,10.3-4.7,5.3,0,10.5,1.4,15.5,4.1-3.3,7.4-6.4,19.7-9.4,36.9s-4.4,30.9-4.4,41.1,1.2,13.8,3.5,19.3c-4,3.9-8.6,5.8-13.8,5.8-9.6,0-14.4-6-14.4-17.9s.6-13.8,1.8-23.1l.1001.1ZM584.7,98.7256c-5.3-8-10.5-12-15.7-12s-11,7-15.3,21c-4.3,13.9-6.5,26.5-6.5,37.7s1.5,11.2,4.5,11.2,7.9-6.8,15.2-20.5c7.4-13.7,13.3-26.2,17.8-37.4Z"/>
          <path class="cls-2" d="M650.5,112.5256c12.3-27.9,24.7-41.9,37.4-41.9,9.6,0,14.4,5.5,14.4,16.5s-1.7,19.6-5.1,35.3c-3.3,15.7-5,27.5-5,35.4s1.4,11.5,4.1,15.5c-5.2,3.7-10.4,5.6-15.5,5.6-8.6,0-12.9-4.6-12.9-13.9s.9-15.4,2.7-25.5c4.6-25.6,6.9-39.7,6.9-42.2,0-2.8-.8-4.2-2.3-4.2-3,0-9.5,10-19.5,30.1s-15,35.6-15,46.7.4,4.3,1.2,7c-4.6,1.4-9.1,2.2-13.5,2.2-7.8,0-11.8-3.2-11.8-9.5s.6-7.4,1.7-12.5l2.7-12.3c6.4-30.5,9.6-50.9,9.6-61.2s-.5-5.5-1.4-8c6.1-2.4,11.3-3.6,15.7-3.6,7,0,10.5,3.3,10.5,9.8s-1.7,13.9-5.2,31.1l.2999-.4Z"/>
          <path class="cls-2" d="M723,75.6256c6.3-2.6,12-3.9,17.2-3.9s10.4,3,10.4,8.9-.4,5.9-1.3,9.8c-7.6,33.3-11.4,56-11.4,68.1s1.4,10.8,4.1,14.8c-5.3,3.7-10.4,5.6-15.4,5.6-8.9,0-13.4-4.6-13.4-13.9s2-21.3,5.9-39.8,5.9-31.8,5.9-39.8c0-3.2-.7-6.4-2-9.6v-.2ZM753.8,55.6256c-4.9,2.6-9.3,3.9-13.4,3.9-6.1,0-9.2-1.9-9.2-5.7s.2-3.2.7-5.8.7-4.5.7-5.8c0-.9-.3-1.9-.9-3.2,5.9-2.4,10.8-3.6,14.9-3.6,6.7,0,10,2.8,10,8.5s-.9,6.4-2.8,11.5v.2Z"/>
          <path class="cls-2" d="M790.4,112.5256c12.3-27.9,24.7-41.9,37.4-41.9,9.6,0,14.4,5.5,14.4,16.5,0,7.8-1.7,19.6-5.1,35.3-3.3,15.7-5,27.5-5,35.4s1.4,11.5,4.1,15.5c-5.2,3.7-10.4,5.6-15.5,5.6-8.6,0-12.9-4.6-12.9-13.9s.9-15.4,2.7-25.5c4.6-25.6,6.9-39.7,6.9-42.2s-.8-4.2-2.3-4.2c-3,0-9.5,10-19.5,30.1s-15,35.6-15,46.7.4,4.3,1.2,7c-4.7,1.4-9.1,2.2-13.5,2.2-7.8,0-11.8-3.2-11.8-9.5s.6-7.4,1.7-12.5l2.7-12.3c6.4-30.5,9.6-50.9,9.6-61.2s-.5-5.5-1.4-8c6.1-2.4,11.3-3.6,15.7-3.6,7,0,10.5,3.3,10.5,9.8s-1.7,13.9-5.2,31.1l.2999-.4Z"/>
          <path class="cls-2" d="M876.2,134.5256c-.4,4.1-.6,7.5-.6,10.3,0,13,4.6,19.5,13.9,19.5s18.6-5,29.8-15c1.1,2.7,1.7,5,1.7,7.1,0,6.7-4.4,12.3-13.3,16.8-8.9,4.5-17.8,6.7-26.7,6.7-21.4,0-32.1-10.5-32.1-31.5s5.7-37.7,17.2-53.7c11.4-16,25.2-24.1,41.2-24.1,13.2,0,19.8,6.3,19.8,18.9,0,13.4-4.9,24.1-14.6,32.2-9.7,8.1-21.8,12.3-36.4,12.8h.0999ZM877.5,121.2256c18-.4,26.9-9,26.9-25.8,0-7.2-2.3-10.8-6.8-10.8-8.6,0-15.3,12.2-20.2,36.6h.1Z"/>
        </g>
        <g>
          <path class="cls-2" d="M49.2,41.4256C77.1,26.3256,110.3.5256,161.8,1.4256c21.9.4,63.8,15.7,104.9,20,30,3.1,39.3,3.1,75.7-14.7-40.9,41.8-88,59.5-149.8,56-47-2.7-72.9-28.4-120.7-28.4s-22.7,7.1-22.7,7.1h0Z"/>
          <path class="cls-1" d="M207.3,64.5256c-4.9,0-9.8-.1-14.8-.4-22.6-1.3-40.6-7.9-57.9-14.4-19.5-7.2-37.9-14.1-62.7-14.1s-21.9,6.9-22.1,7l-1.3-2.4c4.7-2.5,9.5-5.4,14.6-8.4C87.9,17.3256,118.6-.7744,161.8.0256c10.7.2,25.9,3.9,43.6,8.1,18.9,4.5,40.2,9.7,61.4,11.9,29.5,3.1,38.8,3.1,75-14.5l1.6,2.2c-37.8,38.6-81.3,56.8-136.1,56.8h0ZM71.9,32.9256c25.2,0,44.8,7.2,63.6,14.2,17.2,6.4,34.9,12.9,57.1,14.2,58.1,3.3,103.8-12.6,143-49.8-31,14.4-41.1,14.2-69.1,11.3-21.4-2.2-42.8-7.4-61.8-12-17.5-4.2-32.6-7.9-43-8h-2.5c-40.8,0-70.3,17.2-94.2,31.1,2.4-.6,4.8-1,6.8-1h.1Z"/>
        </g>
      </g>
      <path class="cls-1" d="M974.4,37.1256c14.5,0,26.1,11.8,26.1,26.6s-11.6,26.7-26.2,26.7-26.3-11.7-26.3-26.7,11.8-26.6,26.3-26.6h.1ZM974.3,41.2256c-11.7,0-21.2,10-21.2,22.4s9.6,22.5,21.4,22.5c11.8.1,21.2-9.9,21.2-22.4s-9.4-22.5-21.2-22.5h-.2ZM969.3,79.1256h-4.7v-29.6c2.5-.4,4.8-.7,8.4-.7s7.4.9,9.2,2.2,2.7,3.3,2.7,6.1-2.6,6.3-5.8,7.2v.2c2.6.5,4.4,2.8,5,7.2.7,4.6,1.4,6.4,1.9,7.3h-5c-.7-.9-1.4-3.7-2-7.6-.7-3.8-2.6-5.2-6.4-5.2h-3.3v12.9ZM969.3,62.7256h3.4c3.9,0,7.2-1.4,7.2-5.1s-1.9-5.2-7.2-5.2-2.6.1-3.4.2v10.1Z"/>
    </g>
  </g>
</svg>