<?xml version="1.0" encoding="UTF-8"?>
<svg id="Layer_2" data-name="Layer 2" xmlns="http://www.w3.org/2000/svg" viewBox="0 0 1032.7055 219.0427">
  <defs>
    <style>
      .cls-1 {
        fill: #191819;
      }
    </style>
  </defs>
  <g id="Layer_1-2" data-name="Layer 1">
    <g>
      <g>
        <path class="cls-1" d="M999.38,216.6347c-11.6856-.0832-23.3713-.2469-35.0568-.1886-2.6185.0138-4.0414-.7655-5.3089-3.1316-10.3848-19.3521-20.9692-38.5988-31.3596-57.9509-1.4395-2.6794-3.0483-3.9192-6.1965-3.7612-5.1978.2607-10.4236.2053-15.6298.0222-2.8763-.0998-3.6611.9458-3.6473,3.7501.108,18.8112.0554,37.6253.0554,56.4365v4.3381h-34.3467V46.7149c22.6779,0,45.2668-.2052,67.8475.0916,10.1933.1331,20.1315,2.2938,29.4762,6.6597,16.0626,7.5084,24.1395,20.5947,25.3766,37.8167.5021,6.9953-.0555,14.2596-1.3869,21.1578-2.7486,14.2152-11.3305,24.4002-24.0285,31.1792-1.8834,1.0069-3.825,1.9083-6.0966,3.0372.7071,1.3924,1.2675,2.6212,1.9332,3.7889,11.8272,20.7334,23.6569,41.4696,35.5394,62.1726.7019,1.2231,1.8751,2.1746,2.8292,3.2536v.7628ZM902.2533,73.004c0,17.5132-.0416,33.7393.1331,49.9627.0083.7517,1.9333,2.0859,3.0039,2.1219,5.9579.2081,11.9574.4882,17.8819-.0056,6.2632-.5186,12.7009-1.1233,18.6338-3.0316,11.7495-3.7778,16.6478-13.1279,15.7602-27.9117-.5935-9.8855-6.5181-17.0832-18.1789-18.7835-12.0682-1.7613-24.4141-1.6254-37.234-2.3522"/>
        <polygon class="cls-1" points="397.6705 112.1132 397.6705 46.2211 432.0284 46.2211 432.0284 216.1326 397.8036 216.1326 397.8036 143.4615 333.9891 143.4615 333.9891 216.0826 299.5646 216.0826 299.5646 46.3099 333.7201 46.3099 333.7201 112.1132 397.6705 112.1132"/>
        <path class="cls-1" d="M130.8135,46.9248c.0887,1.3786.2219,2.4964.2219,3.6142-.0222,32.8019.1664,65.6036-.1997,98.3999-.1526,13.6466-2.7737,26.9881-8.8926,39.4087-8.5596,17.3829-22.9135,26.7496-41.7025,29.5205-13.1751,1.9388-26.3751,1.6975-39.198-2.3937-20.2979-6.4738-31.8282-21.2243-36.8597-41.17-2.2772-9.0256-3.7445-18.4867-3.886-27.7786C-.1885,114.495.0694,82.4532.0611,50.4169c0-1.1095.1636-2.2161.269-3.553h33.6866v4.6209c.0055,31.9115-.0222,63.8201.0416,95.7316.0195,8.6872,1.2454,17.2192,4.6515,25.2851,4.6238,10.945,12.9921,16.6366,24.8496,16.8862,19.3049.405,29.8672-8.1352,33.3399-27.185,1.0401-5.7138,1.5921-11.5913,1.6199-17.3994.158-31.0183.0804-62.0394.0832-93.0605v-4.818h32.211Z"/>
        <path class="cls-1" d="M583.4675,45.6245h12.404c6.3545,0,12.7147.1609,19.0609-.0665,3.015-.1082,4.216,1.0595,4.9455,3.8388,10.6927,40.8095,21.4684,81.594,32.236,122.3813,1.0456,3.9636,2.1829,7.8995,3.2785,11.8493.3578.0138.7128.0305,1.0678.0444.4494-1.3536.9736-2.6877,1.3369-4.0663,11.4138-43.3641,22.8415-86.7253,34.1416-130.1172.7406-2.8347,1.8112-3.9803,4.8123-3.922,8.7649.1692,17.5381.0499,26.3086.0721,1.115.0056,2.2328.1775,3.8277.3107-.2746,1.3453-.405,2.4187-.7129,3.4367-16.5451,54.6946-33.1235,109.3781-49.5965,164.0949-.749,2.4825-1.9305,3.0982-4.291,3.0789-11.3111-.0888-22.6222-.1193-33.9334.0194-2.6711.0334-3.6585-.9209-4.413-3.42-16.4148-54.47-32.9322-108.9066-49.4218-163.3544-.3218-1.0623-.5465-2.1552-1.0512-4.18"/>
        <path class="cls-1" d="M741.1091,46.0789h105.2398v29.1156h-70.3549v43.0672h59.6651v29.3985h-59.8066c-.0694,1.52-.1691,2.7266-.172,3.9359-.011,10.676.0305,21.352-.0361,32.0279-.0139,2.5768.0721,4.8984,4.5101,5.5973-1.7752,1.19-2.6212,1.7114-3.4174,2.3022-.6823.5075-1.3091,1.0928-1.9609,1.642.8043.724,1.5145,1.6199,2.4409,2.1219.8211.4438,1.8778.4465,2.954.6685-.921,2.8375-6.3656,1.9832-3.9775,6.0162.5299.9014,3.2037,1.6476,3.8499,1.1372,1.409-1.104,2.1468-3.0622,3.6058-5.381.5187.3272,1.975,1.2426,4.3216,2.7154-2.0914.3634-3.0955.5381-4.144.7212v4.9095c-3.0456.4854-5.9107.9403-8.8259,1.4062.5158,2.2439.882,3.8499,1.2814,5.5863,1.265.1553,2.8236.3467,4.3854.5408-.0251.4633-.0472.9265-.0694,1.3924-12.9726,3.0594-26.1976.6435-39.4892,1.6115V46.0789ZM769.9333,198.8045c.2109.2607.4217.5186.6325.7766-1.7058,2.2522-3.8248,4.89-.6574,7.0674,2.6406,1.8112,4.632-.2969,6.3739-3.0871-1.5864-.3662-2.7598-.6324-4.5516-1.0457,4.2633-1.8778,3.886-4.474,1.4701-6.6513-1.5062-1.3564-3.5227-3.7972-6.0274-1.4202-2.3659,2.244-2.4823,5.7472-.9873,7.2172,1.2953-.9875,2.5213-1.9222,3.7471-2.8569M753.4465,196.86c1.1705.1165,2.1275.2136,2.7737.2774.2995,1.5727.5465,2.8597.7989,4.1688,1.6198-.5131,3.1231-.9902,4.9122-1.5588-.4661-.8488-.8488-1.5533-1.3037-2.3854.8267-.2718,1.6061-.5242,2.4908-.8155-.9597-2.4214-.7212-6.5043-4.449-4.9677-1.7446.7184-6.9676-.0554-5.2229,5.2811M761.5929,188.5389c-.2553.283-.5104.5659-.7655.8488,1.506.968,2.9706,2.66,4.5294,2.7487,3.4006.1998,3.1092-2.9845,4.4047-6.0827-2.1192.8099-3.3036,1.3453-4.535,1.7086-1.1844.3495-2.4214.5242-3.6335.7766M758.5945,205.3975c-.3467-.2774-.6934-.5575-1.0374-.8377-1.3979,1.8806-2.7959,3.7584-4.1939,5.6362h5.4477c-.0999-2.194-.1581-3.4949-.2164-4.7985M763.5484,211.6716c2.1939,3.972,2.3021,3.9803,6.3878.6269-1.1539-1.0707-2.3049-2.1385-3.5697-3.3146-1.0791,1.0318-1.9667,1.875-2.8181,2.6877M763.6566,203.026c-.8683-.0665-1.7364-.1331-2.6046-.1969-.2524,1.5478-.5075,3.0982-.76,4.6487,1.1206-.0832,3.0676.1165,3.2091-.2968.4271-1.2593.1554-2.7515.1554-4.1551"/>
        <polygon class="cls-1" points="280.2861 46.2592 280.2861 75.164 232.4535 75.164 232.4535 216.1096 197.8461 216.1096 197.8461 75.2971 149.9803 75.2971 149.9803 46.2592 280.2861 46.2592"/>
        <polygon class="cls-1" points="499.7455 187.0567 571.748 187.0567 571.748 216.1557 465.0076 216.1557 465.0076 113.2902 558.7865 113.2902 558.7865 142.328 499.7455 142.328 499.7455 187.0567"/>
        <rect class="cls-1" x="464.9781" y="46.1116" width="104.5214" height="28.9408"/>
        <path class="cls-1" d="M804.0117,189.3336c1.2619.8515,2.8985,1.9583,4.5349,3.0622-2.9179.4188-5.8164-.8349-6.7233,3.1149-.0223.1026-2.6545-.3939-4.8707-.7351,2.9013-2.2356,4.7763-3.6835,7.0592-5.442"/>
        <path class="cls-1" d="M817.3891,192.7297c-.2331,3.7251-.4466,7.1756-.663,10.6094-1.7309-.1137-3.7695-.2468-5.2423-.3411,2.1524-3.7445,4.105-7.1395,5.9053-10.2683"/>
        <path class="cls-1" d="M827.1672,205.0026c-1.3064,1.0457-2.5907,2.4437-4.18,3.1953-.8211.3856-2.4713-.0582-3.2037-.7239-.5324-.4827-.5991-2.4575-.1165-2.8653.9154-.7683,2.3826-1.2066,3.6087-1.1816,1.1067.025,2.1968.8488,3.8915,1.5754"/>
        <path class="cls-1" d="M801.1979,199.3522c-.8101,1.9971-1.1123,4.7014-2.5907,5.7638-1.1649.835-3.7834-.3605-6.0549-.6989,1.5947-2.574,2.6127-5.3727,5.6778-1.8334.846-1.409,1.5143-2.5185,2.1829-3.6307.2607.1331.5241.2663.785.3994"/>
        <path class="cls-1" d="M830.2652,207.1857c-2.857,7.7082-2.6906,9.5139-7.5501,7.9661.2746-.5631.4965-1.5311.7989-1.5561,3.2924-.2773,3.5587-2.6877,4.1023-5.1618.1275-.5825,1.7253-.8405,2.6489-1.2482"/>
        <path class="cls-1" d="M840.5378,205.1401c-1.179-4.3796-1.8334-4.9205-5.6916-3.2757,1.0567-1.4728,1.5365-2.6295,1.9332-2.6017,1.3951.0971,3.3672.172,3.9941,1.0568.8654,1.2148.7046,3.1592.9846,4.7902-.4077.0111-.8126.0194-1.2203.0305"/>
        <path class="cls-1" d="M836.543,210.5743c-.8267-.76-1.986-1.3674-2.4187-2.3076-1.0401-2.2745.1497-3.6669,2.513-4.671.2218,2.1274.4132,3.9969.6074,5.8636-.2331.3717-.4688.7434-.7017,1.115"/>
        <path class="cls-1" d="M848.5812,200.6553c-2.097-1.6975-3.2564-2.635-5.0206-4.0607,1.4813-.6241,2.5907-1.0901,3.6974-1.5561.3828,1.6282.7655,3.2536,1.3232,5.6167"/>
        <path class="cls-1" d="M790.127,209.0372c-.8737-.4326-2.463-.8293-2.4854-1.3036-.0665-1.3203.5187-2.6739.8461-4.0164l1.3147-.0776c.3882,1.5478.7738,3.0982,1.1593,4.6487-.2773.2496-.5575.4992-.8348.7489"/>
        <path class="cls-1" d="M848.9522,213.7058c-1.4424.9403-2.2496,1.7919-3.1621,1.9249-.4744.0694-1.1344-1.1288-1.7114-1.7529.7765-.6296,1.4756-1.4922,2.3632-1.789.441-.147,1.226.7517,2.5103,1.617"/>
        <path class="cls-1" d="M805.9024,209.7966c.771,1.5534,1.5421,3.1066,2.5573,5.1563-.921.3439-1.7947.6685-2.7876,1.0373-.2054-2.2189-.3662-3.9553-.527-5.6944.2524-.1664.5048-.3328.7572-.4993"/>
        <path class="cls-1" d="M785.3084,186.9599c1.5947,1.8169,2.3853,2.7183,3.4421,3.922-1.1123.6325-1.9916,1.1345-3.4421,1.9583v-5.8803Z"/>
        <path class="cls-1" d="M809.1611,206.6082c1.0872,1.1234,2.1746,2.2468,3.2618,3.3701-.6657.5325-1.3286,1.0678-2.1885,1.7585-.7183-1.7696-1.2482-3.0816-1.7806-4.3908l.7073-.7379Z"/>
      </g>
      <path class="cls-1" d="M1005.3613,54.6872c-5.0544,0-9.6646-1.2284-13.8306-3.6852-4.166-2.4568-7.476-5.7682-9.9328-9.9341-2.4568-4.1646-3.6865-8.7396-3.6865-13.7249,0-5.0544,1.2297-9.6484,3.6865-13.7791,2.4568-4.128,5.7668-7.4232,9.9328-9.88,4.166-2.4568,8.7762-3.6838,13.8306-3.6838,3.7759,0,7.3189.7124,10.6289,2.1358,3.31,1.4248,6.211,3.3832,8.7057,5.8738,2.492,2.4934,4.4477,5.3944,5.8752,8.7057,1.4221,3.3114,2.1345,6.8543,2.1345,10.6276,0,4.9854-1.227,9.5603-3.6838,13.7249-2.4568,4.166-5.7506,7.4773-9.8813,9.9341-4.1308,2.4568-8.722,3.6852-13.7791,3.6852ZM1005.3613,48.491c3.9168,0,7.4597-.9237,10.6289-2.7764,3.1665-1.8514,5.7153-4.38,7.6358-7.5843,1.9232-3.203,2.8848-6.7988,2.8848-10.7874,0-3.9154-.9616-7.4773-2.8848-10.6804-1.9205-3.2044-4.4693-5.7506-7.6358-7.6372-3.1692-1.8866-6.7121-2.8306-10.6289-2.8306-3.9872,0-7.5816.944-10.786,2.8306-3.2044,1.8866-5.7506,4.4328-7.6385,7.6372-1.888,3.203-2.8306,6.765-2.8306,10.6804s.9426,7.4773,2.8306,10.6817c1.888,3.2044,4.4341,5.7506,7.6385,7.6358,3.2044,1.888,6.7988,2.8306,10.786,2.8306ZM994.8949,41.6556V12.8162h11.642c2.9904,0,5.4472.8018,7.3704,2.404,1.9232,1.6022,2.8848,3.8978,2.8848,6.8896,0,1.9218-.4117,3.5782-1.2297,4.9664s-2.0478,2.4744-3.6838,3.2572l6.7284,11.3223h-6.9424l-5.7668-10.1468h-4.8079v10.1468h-6.1948ZM1001.0896,25.9547h5.4472c1.2108,0,2.1724-.3738,2.8848-1.1214.7097-.7476,1.0672-1.6564,1.0672-2.7236,0-1.0686-.3575-1.9584-1.0672-2.6708-.7124-.711-1.674-1.0686-2.8848-1.0686h-5.4472v7.5843Z"/>
    </g>
  </g>
</svg>