<?xml version="1.0" encoding="UTF-8"?>
<svg id="Layer_2" data-name="Layer 2" xmlns="http://www.w3.org/2000/svg" xmlns:xlink="http://www.w3.org/1999/xlink" viewBox="0 0 1504.8792 1288.2401">
  <defs>
    <style>
      .cls-1 {
        fill: none;
        stroke: #191819;
        stroke-linecap: round;
        stroke-linejoin: round;
        stroke-width: 2px;
      }

      .cls-2 {
        filter: url(#drop-shadow-1);
      }
    </style>
    <filter id="drop-shadow-1" x="-22.6688" y="-22.7764" width="1566" height="1350" filterUnits="userSpaceOnUse">
      <feOffset dx="8" dy="8"/>
      <feGaussianBlur result="blur" stdDeviation="10"/>
      <feFlood flood-color="#008bd8" flood-opacity=".75"/>
      <feComposite in2="blur" operator="in"/>
      <feComposite in="SourceGraphic"/>
    </filter>
  </defs>
  <g id="Layer_1-2" data-name="Layer 1">
    <g class="cls-2">
      <path class="cls-1" d="M1203.2136,1077.416c3.0568,37.0128-17.1147,66.8757-23.6407,76.5371-5.4951,8.1351-27.8004,40.1885-68.1106,52.4056-24.6948,7.4844-29.3069-.6104-52.1223,4.2481-56.1795,11.9634-55.8954,66.9377-100.0179,75.6733-37.8374,7.4912-47.4854-31.0682-122.8077-39.1618-19.6822-2.1149-39.6789-2.6583-59.2196.9997-18.3056,3.4268-39.1453,16.233-57.9927,10.7144-11.591-3.3939-19.5683-13.6579-27.3428-22.9008-25.673-30.5219-52.6455-37.1591-91.1721-34.7401-67.3833,4.2308-77.936,39.3604-112.2771,32.5244-39.3968-7.8423-35.5308-56.0721-100.2718-101.7522-66.7278-47.0819-170.9879-55.9581-222.3921-122.4814-24.9469-32.2847-34.2243-72.096-50.1779-108.8364-22.1855-51.092-61.4569-99.9918-64.6068-156.725-2.6187-47.1735,15.4471-92.4569-17.6638-133.5358-31.0776-38.5563-52.4318-75.5752-3.2169-113.3309,24.0119-18.4195,58.1591-20.1403,85.5813-32.3686,40.2873-17.9652,67.4228-45.6493,104.1133-67.5171,16.5296-9.8517,36.3319-15.5755,55.1829-11.7124,12.8666,2.6367,26.0375,9.5838,38.4116,5.1893,25.2696-8.9742,18.0017-59.9509,46.7855-58.981,4.9083.1654,9.4642,2.4459,13.8389,4.6776,15.8056,8.063,31.6113,16.126,47.4169,24.189,22.3951,11.4245,45.5068,23.0612,70.5574,25.2075,55.4265,4.748,105.1286-29.4346,162.9809-25.4094,48.7047,3.3887,100.5053,21.7168,126.6754,65.6993,19.4509,32.69,69.6076,60.5348,97.4486,86.455,67.7225,63.0504,113.5675,15.1026,180.6644,76.3819,50.2607,45.9029,81.2941,116.6415,93.4538,182.6524,3.1892,17.3129-11.8916,28.0302-19.8338,75.772-7.8284,47.0577,37.0478,64.7726,38.6118,92.0937,3.288,57.4388,26.2427,78.6919,31.1434,138.0324Z"/>
      <path class="cls-1" d="M1248.5951,1026.5652c3.0568,37.0128-17.1147,66.8757-23.6407,76.5371-5.4951,8.1351-27.8004,40.1885-68.1106,52.4056-24.6948,7.4844-29.3069-.6104-52.1223,4.2481-56.1795,11.9634-55.8954,66.9377-100.0179,75.6733-37.8374,7.4912-47.4854-31.0682-122.8077-39.1618-19.6822-2.1149-39.6789-2.6583-59.2196.9997-18.3056,3.4268-39.1453,16.233-57.9927,10.7144-11.591-3.3939-19.5683-13.6579-27.3428-22.9008-25.673-30.5219-52.6455-37.1591-91.1721-34.7401-67.3833,4.2308-77.936,39.3604-112.2771,32.5244-39.3968-7.8423-35.5308-56.0721-100.2718-101.7522-66.7278-47.0819-170.9879-55.9581-222.3921-122.4814-24.9469-32.2847-34.2243-72.096-50.1779-108.8364-22.1855-51.092-61.4569-99.9918-64.6068-156.725-2.6187-47.1735,15.4471-92.4569-17.6638-133.5358-31.0776-38.5563-52.4318-75.5752-3.2169-113.3309,24.0119-18.4195,58.1591-20.1403,85.5813-32.3686,40.2873-17.9652,67.4228-45.6493,104.1133-67.5171,16.5296-9.8517,36.3319-15.5755,55.1829-11.7124,12.8666,2.6367,26.0375,9.5838,38.4116,5.1893,25.2696-8.9742,18.0017-59.9509,46.7855-58.981,4.9083.1654,9.4642,2.4459,13.8389,4.6776,15.8056,8.063,31.6113,16.126,47.4169,24.189,22.3951,11.4245,45.5068,23.0612,70.5574,25.2075,55.4265,4.748,105.1286-29.4346,162.9809-25.4094,48.7047,3.3887,100.5053,21.7168,126.6754,65.6993,19.4509,32.69,69.6076,60.5348,97.4486,86.455,67.7225,63.0504,113.5675,15.1026,180.6644,76.3819,50.2529,45.8959,81.2846,116.6197,93.4482,182.6219,6.9258,37.5809-33.2788,69.0836-15.4209,110.4582,14.5736,33.7652,30.6414,51.1422,38.2367,88.1774,7.4926,36.5346,23.9996,69.617,27.1112,107.2929Z"/>
      <path class="cls-1" d="M1305.6889,967.1713c3.0568,37.0128-17.1147,66.8757-23.6407,76.5371-5.4951,8.1351-27.8004,40.1885-68.1106,52.4056-24.6948,7.4844-29.3069-.6104-52.1223,4.2481-56.1795,11.9634-55.8954,66.9377-100.0179,75.6733-37.8374,7.4912-47.4854-31.0682-122.8077-39.1618-19.6822-2.1149-39.6789-2.6583-59.2196.9997-18.3056,3.4268-39.1453,16.233-57.9927,10.7144-11.591-3.3939-19.5683-13.6579-27.3428-22.9008-25.673-30.5219-52.6455-37.1591-91.1721-34.7401-67.3833,4.2308-77.936,39.3604-112.2771,32.5244-39.3968-7.8423-35.5308-56.0721-100.2718-101.7522-66.7278-47.0819-170.9879-55.9581-222.3921-122.4814-24.9469-32.2847-34.2243-72.096-50.1779-108.8364-22.1855-51.092-61.4569-99.9918-64.6068-156.725-2.6187-47.1735,15.4471-92.4569-17.6638-133.5358-31.0776-38.5563-52.4318-75.5752-3.2169-113.3309,24.0119-18.4195,58.1591-20.1403,85.5813-32.3686,40.2873-17.9652,67.4228-45.6493,104.1133-67.5171,16.5296-9.8517,36.3319-15.5755,55.1829-11.7124,12.8666,2.6367,26.0375,9.5838,38.4116,5.1893,25.2696-8.9742,18.0017-59.9509,46.7855-58.981,4.9083.1654,9.4642,2.4459,13.8389,4.6776,15.8056,8.063,31.6113,16.126,47.4169,24.189,22.3951,11.4245,45.5068,23.0612,70.5574,25.2075,55.4265,4.748,105.1286-29.4346,162.9809-25.4094,48.7047,3.3887,100.5053,21.7168,126.6754,65.6993,19.4509,32.69,69.6076,60.5348,97.4486,86.455,67.7225,63.0504,113.5675,15.1026,180.6644,76.3819,50.2428,45.8866,81.2721,116.5913,93.4409,182.5821,6.5743,35.652-30.1442,66.4902-16.577,106.2008,5.4396,15.9215,17.1244,28.7719,26.3152,42.865,13.9712,21.4234,12.3633,46.9702,18.7297,71.0874,7.6653,29.0378,18.956,55.4156,21.4666,85.8152Z"/>
      <path class="cls-1" d="M1351.0704,916.3205c3.0568,37.0128-17.1147,66.8757-23.6407,76.5371-5.4951,8.1351-27.8004,40.1885-68.1106,52.4056-24.6948,7.4844-29.3069-.6104-52.1223,4.2481-56.1795,11.9634-55.8954,66.9377-100.0179,75.6733-37.8374,7.4912-47.4854-31.0682-122.8077-39.1618-19.6822-2.1149-39.6789-2.6583-59.2196.9997-18.3056,3.4268-39.1453,16.233-57.9927,10.7144-11.591-3.3939-19.5683-13.6579-27.3428-22.9008-25.673-30.5219-52.6455-37.1591-91.1721-34.7401-67.3833,4.2308-77.936,39.3604-112.2771,32.5244-39.3968-7.8423-35.5308-56.0721-100.2718-101.7522-66.7278-47.0819-170.9879-55.9581-222.3921-122.4814-24.9469-32.2847-34.2243-72.096-50.1779-108.8364-22.1855-51.092-61.4569-99.9918-64.6068-156.725-2.6187-47.1735,15.4471-92.4569-17.6638-133.5358-31.0776-38.5563-52.4318-75.5752-3.2169-113.3309,24.0119-18.4195,58.1591-20.1403,85.5813-32.3686,40.2873-17.9652,67.4228-45.6493,104.1133-67.5171,16.5296-9.8517,36.3319-15.5755,55.1829-11.7124,12.8666,2.6367,26.0375,9.5838,38.4116,5.1893,25.2696-8.9742,18.0017-59.9509,46.7855-58.981,4.9083.1654,9.4642,2.4459,13.8389,4.6776,15.8056,8.063,31.6113,16.126,47.4169,24.189,22.3951,11.4245,45.5068,23.0612,70.5574,25.2075,55.4265,4.748,105.1286-29.4346,162.9809-25.4094,48.7047,3.3887,100.5053,21.7168,126.6754,65.6993,19.4509,32.69,69.6076,60.5348,97.4486,86.455,67.7225,63.0504,113.5675,15.1026,180.6669,76.3843,38.2348,34.9208,64.0716,82.1497,80.195,130.9028,7.7659,23.4821,14.6155,44.9723,10.6541,69.3352-6.0552,37.2397-25.7025,57.5891-10.2416,95.0131,12.7028,30.748,32.596,55.1114,42.4562,87.2784,10.5177,34.3118,17.3483,70.1706,20.3089,106.0187Z"/>
      <path class="cls-1" d="M1399.4677,860.5643c3.0568,37.0128-17.1147,66.8757-23.6407,76.537-5.4951,8.1351-27.8004,40.1885-68.1106,52.4056-24.6948,7.4844-29.3069-.6104-52.1223,4.2481-56.1795,11.9634-55.8954,66.9377-100.0179,75.6733-37.8374,7.4912-47.4854-31.0682-122.8077-39.1618-19.6822-2.1149-39.6789-2.6583-59.2196.9997-18.3056,3.4268-39.1453,16.233-57.9927,10.7144-11.591-3.3939-19.5683-13.6579-27.3428-22.9008-25.673-30.5219-52.6455-37.1591-91.1721-34.7401-67.3833,4.2308-77.936,39.3604-112.2771,32.5244-39.3968-7.8423-35.5308-56.0721-100.2718-101.7522-66.7278-47.0819-170.9879-55.9581-222.3921-122.4814-24.9469-32.2847-34.2243-72.096-50.1779-108.8364-22.1855-51.092-61.4569-99.9918-64.6068-156.725-2.6187-47.1735,15.4471-92.4569-17.6638-133.5358-31.0776-38.5563-52.4318-75.5752-3.2169-113.3309,24.0119-18.4195,58.1591-20.1403,85.5813-32.3686,40.2873-17.9652,67.4228-45.6493,104.1133-67.5171,16.5296-9.8517,36.3319-15.5755,55.1829-11.7124,12.8666,2.6367,26.0375,9.5838,38.4116,5.1893,25.2696-8.9742,18.0017-59.9509,46.7855-58.981,4.9083.1654,9.4642,2.4459,13.8389,4.6776,15.8056,8.063,31.6113,16.126,47.4169,24.189,22.3951,11.4245,45.5068,23.0612,70.5574,25.2075,55.4265,4.748,105.1286-29.4346,162.9809-25.4094,48.7047,3.3887,100.5053,21.7168,126.6754,65.6993,19.4509,32.69,69.6076,60.5348,97.4486,86.455,67.7225,63.0504,113.5675,15.1026,180.6754,76.392,39.4629,36.0462,65.7246,85.1528,81.7236,135.6495,7.6241,24.0634,12.9488,44.5277,8.0374,68.8339-6.0966,30.1721-24.5002,53.4925-12.0702,85.8512,5.9428,15.4709,17.841,27.8469,25.799,42.3858,20.9522,38.2802,36.2422,111.838,39.8745,155.8201Z"/>
      <path class="cls-1" d="M1460.3509,797.133c3.0567,37.0127-17.1148,66.8755-23.6407,76.5369-5.4951,8.1351-27.8004,40.1885-68.1106,52.4056-24.6948,7.4844-29.3069-.6104-52.1223,4.2481-56.1795,11.9634-55.8954,66.9377-100.0179,75.6733-37.8374,7.4912-47.4854-31.0682-122.8077-39.1618-19.6822-2.1149-39.6789-2.6583-59.2196.9997-18.3056,3.4268-39.1453,16.233-57.9927,10.7144-11.591-3.3939-19.5683-13.6579-27.3428-22.9008-25.673-30.5219-52.6455-37.1591-91.1721-34.7401-67.3833,4.2308-77.936,39.3604-112.2771,32.5244-39.3968-7.8423-35.5308-56.0721-100.2718-101.7522-66.7278-47.0819-170.9879-55.9581-222.3921-122.4814-24.9469-32.2847-34.2243-72.096-50.1779-108.8364-22.1855-51.092-61.4569-99.9918-64.6068-156.725-2.6187-47.1735,15.4471-92.4569-17.6638-133.5358-31.0776-38.5563-52.4318-75.5752-3.2169-113.3309,24.0119-18.4195,58.1591-20.1403,85.5813-32.3686,40.2873-17.9652,67.4228-45.6493,104.1133-67.5171,16.5296-9.8517,36.3319-15.5755,55.1829-11.7124,12.8666,2.6367,26.0375,9.5838,38.4116,5.1893,25.2696-8.9742,18.0017-59.9509,46.7855-58.981,4.9083.1654,9.4642,2.4459,13.8389,4.6776,15.8056,8.063,31.6113,16.126,47.4169,24.189,22.3951,11.4245,45.5068,23.0612,70.5574,25.2075,55.4265,4.748,105.1286-29.4346,162.9809-25.4094,48.7047,3.3887,100.5053,21.7168,126.6754,65.6993,19.4509,32.69,69.6076,60.5348,97.4486,86.455,67.7212,63.0492,113.5657,15.1044,180.6621,76.3799,40.5979,37.0758,69.0747,83.6931,77.7075,138.379,8.1262,51.4769-20.9707,122.9866,7.161,167.8799,6.3938,10.2034,15.0443,18.8426,21.4651,29.0359,12.4145,19.7126,10.9548,51.5577,17.7768,74.3224,7.909,26.392,16.9733,51.1606,19.2672,78.9355Z"/>
      <path class="cls-1" d="M1503.566,746.7652c3.0568,37.0128-17.1147,66.8757-23.6407,76.537-5.4951,8.1351-27.8004,40.1885-68.1106,52.4056-24.6948,7.4844-29.3069-.6104-52.1223,4.2481-56.1795,11.9634-55.8954,66.9377-100.0179,75.6733-37.8374,7.4912-47.4854-31.0682-122.8077-39.1618-19.6822-2.1149-39.6789-2.6583-59.2196.9997-18.3056,3.4268-39.1453,16.233-57.9927,10.7144-11.591-3.3939-19.5683-13.6579-27.3428-22.9008-25.673-30.5219-52.6455-37.1591-91.1721-34.7401-67.3833,4.2308-77.936,39.3604-112.2771,32.5244-39.3968-7.8423-35.5308-56.0721-100.2718-101.7522-66.7278-47.0819-170.9879-55.9581-222.3921-122.4814-24.9469-32.2847-34.2243-72.096-50.1779-108.8364-22.1855-51.092-61.4569-99.9918-64.6068-156.725-2.6187-47.1735,15.4471-92.4569-17.6638-133.5358-31.0776-38.5563-52.4318-75.5752-3.2169-113.3309,24.0119-18.4195,58.1591-20.1403,85.5813-32.3686,40.2873-17.9652,67.4228-45.6493,104.1133-67.5171,16.5296-9.8517,36.3319-15.5755,55.1829-11.7124,12.8666,2.6367,26.0375,9.5838,38.4116,5.1893,25.2696-8.9742,18.0017-59.9509,46.7855-58.981,4.9083.1654,9.4642,2.4459,13.8389,4.6776,15.8056,8.063,31.6113,16.126,47.4169,24.189,22.3951,11.4245,45.5068,23.0612,70.5574,25.2075,55.4265,4.748,105.1286-29.4346,162.9809-25.4094,48.7047,3.3887,100.5053,21.7168,126.6754,65.6993,19.4509,32.69,69.6076,60.5348,97.4486,86.455,67.7225,63.0504,113.5675,15.1026,180.6644,76.3819.0073.0066.0145.0133.0218.0199,40.976,37.4333,67.7278,88.8786,83.5226,141.5236,7.7467,25.8202,10.2767,42.4674,4.1358,67.6249-7.3034,29.9195-22.8445,56.4234-7.6882,87.3938,5.7715,11.7935,15.2478,21.3531,22.023,32.602,14.8075,24.586,15.4021,55.6379,22.8601,82.695,7.1244,25.8469,16.2625,49.5972,18.5001,76.6912Z"/>
    </g>
  </g>
</svg>