<?xml version="1.0" encoding="UTF-8"?>
<svg id="Layer_2" data-name="Layer 2" xmlns="http://www.w3.org/2000/svg" xmlns:xlink="http://www.w3.org/1999/xlink" viewBox="0 0 1309.5475 1411.7099">
  <defs>
    <style>
      .cls-1 {
        fill: none;
        stroke: #191819;
        stroke-linecap: round;
        stroke-linejoin: round;
        stroke-width: 2px;
      }

      .cls-2 {
        filter: url(#drop-shadow-1);
      }
    </style>
    <filter id="drop-shadow-1" x="-22.5623" y="-22.1782" width="1371" height="1472" filterUnits="userSpaceOnUse">
      <feOffset dx="8" dy="8"/>
      <feGaussianBlur result="blur" stdDeviation="10"/>
      <feFlood flood-color="#008bd8" flood-opacity=".75"/>
      <feComposite in2="blur" operator="in"/>
      <feComposite in="SourceGraphic"/>
    </filter>
  </defs>
  <g id="Layer_1-2" data-name="Layer 1">
    <g class="cls-2">
      <path class="cls-1" d="M55.5011,624.4243c-31.3608,19.8944-43.0048,53.9987-46.7719,65.0323-3.172,9.2906-15.2753,46.4182-.6964,85.9355,8.9313,24.2091,18.1694,23.003,28.0609,44.129,24.3561,52.0195-19.6555,84.9624,0,125.4194,16.8557,34.6941,53.4267,19.1227,105.3277,74.3064,13.5621,14.4199,26.0606,30.0387,34.9336,47.8289,8.3121,16.6657,10.6735,41.0114,26.4461,52.712,9.7001,7.1957,22.6985,7.3644,34.7602,7.9875,39.8303,2.0576,61.3975,19.5627,82.7139,51.7459,37.2826,56.2887,15.635,85.9,41.8065,109.1613,30.0245,26.6859,66.1536-5.4971,141.6442,18.5701,77.8073,24.8058,147.7924,102.5943,231.8578,103.4499,40.798.4149,78.1438-16.2073,117.0689-25.6525,54.1301-13.1348,116.8209-11.3214,163.9644-43.0401,39.1994-26.3744,64.4111-68.1036,117.1481-66.4841,49.4984,1.52,91.9041-3.7866,92.3187-65.8142.2011-30.2624-19.0298-58.5319-25.8236-87.7783-9.9812-42.9673-4.2765-81.3105-8.9753-123.7642-2.1169-19.126-9.5003-38.3712-23.955-51.0734-9.8659-8.6698-23.3528-14.9815-27.3144-27.501-8.0901-25.5663,36.9474-50.5279,18.8068-72.8968-3.0934-3.8144-7.6609-6.0716-12.0801-8.2138-15.9665-7.7396-31.933-15.4791-47.8995-23.2187-22.623-10.9662-45.8476-22.3759-62.6738-41.058-37.2286-41.3361-39.9575-101.5964-78.0732-145.303-32.089-36.7958-77.9595-67.0466-128.8242-61.379-37.8052,4.2124-90.2731-18.9854-127.7418-25.5484-91.1419-15.9643-80.5661-81.4541-169.9181-97.988-66.9315-12.3852-142.0676,5.5476-202.0458,35.6791-15.7307,7.9027-15.1782,26.3955-48.4588,61.5347-32.8036,34.6357-74.0073,9.5369-96.7386,24.7742-47.7894,32.0343-78.5881,26.552-128.8671,58.4476Z"/>
      <path class="cls-1" d="M68.6715,557.5525c-31.3608,19.8944-43.0048,53.9987-46.7719,65.0323-3.172,9.2906-15.2753,46.4182-.6964,85.9355,8.9313,24.2091,18.1694,23.003,28.0609,44.129,24.3561,52.0195-19.6555,84.9624,0,125.4194,16.8557,34.6941,53.4267,19.1227,105.3277,74.3064,13.5621,14.4199,26.0606,30.0387,34.9336,47.8289,8.3121,16.6657,10.6735,41.0114,26.4461,52.712,9.7001,7.1957,22.6985,7.3644,34.7602,7.9875,39.8303,2.0576,61.3975,19.5627,82.7139,51.7459,37.2826,56.2887,15.635,85.9,41.8065,109.1613,30.0245,26.6859,66.1536-5.4971,141.6442,18.5701,77.8073,24.8058,147.7924,102.5943,231.8578,103.4499,40.798.4149,78.1438-16.2073,117.0689-25.6525,54.1301-13.1348,116.8209-11.3214,163.9644-43.0401,39.1994-26.3744,64.4111-68.1036,117.1481-66.4841,49.4984,1.52,91.9041-3.7866,92.3187-65.8142.2011-30.2624-19.0298-58.5319-25.8236-87.7783-9.9812-42.9673-4.2765-81.3105-8.9753-123.7642-2.1169-19.126-9.5003-38.3712-23.955-51.0734-9.8659-8.6698-23.3528-14.9815-27.3144-27.501-8.0901-25.5663,36.9474-50.5279,18.8068-72.8968-3.0934-3.8144-7.6609-6.0716-12.0801-8.2138-15.9665-7.7396-31.933-15.4791-47.8995-23.2187-22.623-10.9662-45.8476-22.3759-62.6738-41.058-37.2286-41.3361-39.9575-101.5964-78.0732-145.303-32.089-36.7958-77.9595-67.0466-128.8242-61.379-37.8052,4.2124-90.2731-18.9854-127.7418-25.5484-91.1419-15.9643-80.5661-81.4541-169.9181-97.988-66.9315-12.3852-142.0676,5.5476-202.0458,35.6791-15.7307,7.9027-15.1782,26.3955-48.4588,61.5347-32.8036,34.6357-74.0073,9.5369-96.7386,24.7742-47.7894,32.0343-78.5881,26.552-128.8671,58.4476Z"/>
      <path class="cls-1" d="M81.5879,476.1861c-31.3608,19.8944-43.0048,53.9987-46.7719,65.0323-3.172,9.2906-15.2753,46.4182-.6964,85.9355,8.9313,24.2091,18.1694,23.003,28.0609,44.129,24.3561,52.0195-19.6555,84.9624,0,125.4194,16.8557,34.6941,53.4267,19.1227,105.3277,74.3064,13.5621,14.4199,26.0606,30.0387,34.9336,47.8289,8.3121,16.6657,10.6735,41.0114,26.4461,52.712,9.7001,7.1957,22.6985,7.3644,34.7602,7.9875,39.8303,2.0576,61.3975,19.5627,82.7139,51.7459,37.2826,56.2887,15.635,85.9,41.8065,109.1613,30.0245,26.6859,66.1536-5.4971,141.6442,18.5701,77.8073,24.8058,147.7924,102.5943,231.8578,103.4499,40.798.4149,78.1438-16.2073,117.0689-25.6525,54.1301-13.1348,116.8209-11.3214,163.9644-43.0401,39.1994-26.3744,64.4111-68.1036,117.1481-66.4841,49.4984,1.52,91.9041-3.7866,92.3187-65.8142.2011-30.2624-19.0298-58.5319-25.8236-87.7783-9.9812-42.9673-4.2765-81.3105-8.9753-123.7642-2.1169-19.126-9.5003-38.3712-23.955-51.0734-9.8659-8.6698-23.3528-14.9815-27.3144-27.501-8.0901-25.5663,36.9474-50.5279,18.8068-72.8968-3.0934-3.8144-7.6609-6.0716-12.0801-8.2138-15.9665-7.7396-31.933-15.4791-47.8995-23.2187-22.623-10.9662-45.8476-22.3759-62.6738-41.058-37.2286-41.3361-39.9575-101.5964-78.0732-145.303-32.089-36.7958-77.9595-67.0466-128.8242-61.379-37.8052,4.2124-90.2731-18.9854-127.7418-25.5484-91.1419-15.9643-80.5661-81.4541-169.9181-97.988-66.9315-12.3852-142.0676,5.5476-202.0458,35.6791-15.7307,7.9027-15.1782,26.3955-48.4588,61.5347-32.8036,34.6357-74.0073,9.5369-96.7386,24.7742-47.7894,32.0343-78.5881,26.552-128.8671,58.4476Z"/>
      <path class="cls-1" d="M94.7583,409.3143c-31.3608,19.8944-43.0048,53.9987-46.7719,65.0323-3.172,9.2906-15.2753,46.4182-.6964,85.9355,8.9313,24.2091,18.1694,23.003,28.0609,44.129,24.3561,52.0195-19.6555,84.9624,0,125.4194,16.8557,34.6941,53.4267,19.1227,105.3277,74.3064,13.5621,14.4199,26.0606,30.0387,34.9336,47.8289,8.3121,16.6657,10.6735,41.0114,26.4461,52.712,9.7001,7.1957,22.6985,7.3644,34.7602,7.9875,39.8303,2.0576,61.3975,19.5627,82.7139,51.7459,37.2826,56.2887,15.635,85.9,41.8065,109.1613,30.0245,26.6859,66.1536-5.4971,141.6442,18.5701,77.8073,24.8058,147.7924,102.5943,231.8578,103.4499,40.798.4149,78.1438-16.2073,117.0689-25.6525,54.1301-13.1348,116.8209-11.3214,163.9644-43.0401,39.1994-26.3744,64.4111-68.1036,117.1481-66.4841,49.4984,1.52,91.9041-3.7866,92.3187-65.8142.2011-30.2624-19.0298-58.5319-25.8236-87.7783-9.9812-42.9673-4.2765-81.3105-8.9753-123.7642-2.1169-19.126-9.5003-38.3712-23.955-51.0734-9.8659-8.6698-23.3528-14.9815-27.3144-27.501-8.0901-25.5663,36.9474-50.5279,18.8068-72.8968-3.0934-3.8144-7.6609-6.0716-12.0801-8.2138-15.9665-7.7396-31.933-15.4791-47.8995-23.2187-22.623-10.9662-45.8476-22.3759-62.6738-41.058-37.2286-41.3361-39.9575-101.5964-78.0732-145.303-32.089-36.7958-77.9595-67.0466-128.8242-61.379-37.8052,4.2124-90.2731-18.9854-127.7418-25.5484-91.1419-15.9643-80.5661-81.4541-169.9181-97.988-66.9315-12.3852-142.0676,5.5476-202.0458,35.6791-15.7307,7.9027-15.1782,26.3955-48.4588,61.5347-32.8036,34.6357-74.0073,9.5369-96.7386,24.7742-47.7894,32.0343-78.5881,26.552-128.8671,58.4476Z"/>
      <path class="cls-1" d="M110.021,337.078c-31.3608,19.8944-43.0048,53.9987-46.7719,65.0323-3.172,9.2906-15.2753,46.4182-.6964,85.9355,8.9313,24.2091,18.1694,23.003,28.0609,44.129,24.3561,52.0195-19.6555,84.9624,0,125.4194,16.8557,34.6941,53.4267,19.1227,105.3277,74.3064,13.5621,14.4199,26.0606,30.0387,34.9336,47.8289,8.3121,16.6657,10.6735,41.0114,26.4461,52.712,9.7001,7.1957,22.6985,7.3644,34.7602,7.9875,39.8303,2.0576,61.3975,19.5627,82.7139,51.7459,37.2826,56.2887,15.635,85.9,41.8065,109.1613,30.0245,26.6859,66.1536-5.4971,141.6442,18.5701,77.8073,24.8058,147.7924,102.5943,231.8578,103.4499,40.798.4149,78.1438-16.2073,117.0689-25.6525,54.1301-13.1348,116.8209-11.3214,163.9644-43.0401,39.1994-26.3744,64.4111-68.1036,117.1481-66.4841,49.4984,1.52,91.9041-3.7866,92.3187-65.8142.2011-30.2624-19.0298-58.5319-25.8236-87.7783-9.9812-42.9673-4.2765-81.3105-8.9753-123.7642-2.1169-19.126-9.5003-38.3712-23.955-51.0734-9.8659-8.6698-23.3528-14.9815-27.3144-27.501-8.0901-25.5663,36.9474-50.5279,18.8068-72.8968-3.0934-3.8144-7.6609-6.0716-12.0801-8.2138-15.9665-7.7396-31.933-15.4791-47.8995-23.2187-22.623-10.9662-45.8476-22.3759-62.6738-41.058-37.2286-41.3361-39.9575-101.5964-78.0732-145.303-32.089-36.7958-77.9595-67.0466-128.8242-61.379-37.8052,4.2124-90.2731-18.9854-127.7418-25.5484-91.1419-15.9643-80.5661-81.4541-169.9181-97.988-66.9315-12.3852-142.0676,5.5476-202.0458,35.6791-15.7307,7.9027-15.1782,26.3955-48.4588,61.5347-32.8036,34.6357-74.0073,9.5369-96.7386,24.7742-47.7894,32.0343-78.5881,26.552-128.8671,58.4476Z"/>
      <path class="cls-1" d="M123.871,250.2534c-31.3608,19.8944-43.0048,53.9987-46.7719,65.0323-3.172,9.2906-15.2753,46.4182-.6964,85.9355,8.9313,24.2091,18.1694,23.003,28.0609,44.129,24.3561,52.0195-19.6555,84.9624,0,125.4194,16.8557,34.6941,53.4267,19.1227,105.3277,74.3064,13.5621,14.4199,26.0606,30.0387,34.9336,47.8289,8.3121,16.6657,10.6735,41.0114,26.4461,52.712,9.7001,7.1957,22.6985,7.3644,34.7602,7.9875,39.8303,2.0576,61.3975,19.5627,82.7139,51.7459,37.2826,56.2887,15.635,85.9,41.8065,109.1613,30.0245,26.6859,66.1536-5.4971,141.6442,18.5701,77.8073,24.8058,147.7924,102.5943,231.8578,103.4499,40.798.4149,78.1438-16.2073,117.0689-25.6525,54.1301-13.1348,116.8209-11.3214,163.9644-43.0401,39.1994-26.3744,64.4111-68.1036,117.1481-66.4841,49.4984,1.52,91.9041-3.7866,92.3187-65.8142.2011-30.2624-19.0298-58.5319-25.8236-87.7783-9.9812-42.9673-4.2765-81.3105-8.9753-123.7642-2.1169-19.126-9.5003-38.3712-23.955-51.0734-9.8659-8.6698-23.3528-14.9815-27.3144-27.501-8.0901-25.5663,36.9474-50.5279,18.8068-72.8968-3.0934-3.8144-7.6609-6.0716-12.0801-8.2138-15.9665-7.7396-31.933-15.4791-47.8995-23.2187-22.623-10.9662-45.8476-22.3759-62.6738-41.058-37.2286-41.3361-39.9575-101.5964-78.0732-145.303-32.089-36.7958-77.9595-67.0466-128.8242-61.379-37.8052,4.2124-90.2731-18.9854-127.7418-25.5484-91.1419-15.9643-80.5661-81.4541-169.9181-97.988-66.9315-12.3852-142.0676,5.5476-202.0458,35.6791-15.7307,7.9027-15.1782,26.3955-48.4588,61.5347-32.8036,34.6357-74.0073,9.5369-96.7386,24.7742-47.7894,32.0343-78.5881,26.552-128.8671,58.4476Z"/>
      <path class="cls-1" d="M137.9632,185.4008c-31.3608,19.8944-43.0048,53.9987-46.7719,65.0323-3.172,9.2906-15.2753,46.4182-.6964,85.9355,8.9313,24.2091,18.1694,23.003,28.0609,44.129,24.3561,52.0195-19.6555,84.9624,0,125.4194,16.8557,34.6941,53.4267,19.1227,105.3277,74.3064,13.5621,14.4199,26.0606,30.0387,34.9336,47.8289,8.3121,16.6657,10.6735,41.0114,26.4461,52.712,9.7001,7.1957,22.6985,7.3644,34.7602,7.9875,39.8303,2.0576,61.3975,19.5627,82.7139,51.7459,37.2826,56.2887,15.635,85.9,41.8065,109.1613,30.0245,26.6859,66.1536-5.4971,141.6442,18.5701,77.8073,24.8058,147.7924,102.5943,231.8578,103.4499,40.798.4149,78.1438-16.2073,117.0689-25.6525,54.1301-13.1348,116.8209-11.3214,163.9644-43.0401,39.1994-26.3744,64.4111-68.1036,117.1481-66.4841,49.4984,1.52,91.9041-3.7866,92.3187-65.8142.2011-30.2624-19.0298-58.5319-25.8236-87.7783-9.9812-42.9673-4.2765-81.3105-8.9753-123.7642-2.1169-19.126-9.5003-38.3712-23.955-51.0734-9.8659-8.6698-23.3528-14.9815-27.3144-27.501-8.0901-25.5663,36.9474-50.5279,18.8068-72.8968-3.0934-3.8144-7.6609-6.0716-12.0801-8.2138-15.9665-7.7396-31.933-15.4791-47.8995-23.2187-22.623-10.9662-45.8476-22.3759-62.6738-41.058-37.2286-41.3361-39.9575-101.5964-78.0732-145.303-32.089-36.7958-77.9595-67.0466-128.8242-61.379-37.8052,4.2124-90.2731-18.9854-127.7418-25.5484-91.1419-15.9643-80.5661-81.4541-169.9181-97.988-66.9315-12.3852-142.0676,5.5476-202.0458,35.6791-15.7307,7.9027-15.1782,26.3955-48.4588,61.5347-32.8036,34.6357-74.0073,9.5369-96.7386,24.7742-47.7894,32.0343-78.5881,26.552-128.8671,58.4476Z"/>
    </g>
  </g>
</svg>